<svg width="41" height="40" viewBox="0 0 41 40" fill="none" xmlns="http://www.w3.org/2000/svg">
<path d="M35.164 10.0125C26.3494 10.0125 19.2038 17.2375 19.1296 25.8375L19.2038 36.55C19.2038 37.0875 19.6612 37.5125 20.1805 37.475C29.9717 36.9625 37.7478 28.7875 37.7478 18.7625V10.0125H35.164Z" fill="url(#paint0_radial_55_457)"/>
<path d="M35.164 10.0125C26.3494 10.0125 19.2038 17.2375 19.1296 25.8375L19.2038 36.55C19.2038 37.0875 19.6612 37.5125 20.1805 37.475C29.9717 36.9625 37.7478 28.7875 37.7478 18.7625V10.0125H35.164Z" fill="url(#paint1_radial_55_457)"/>
<path d="M35.164 10.0125C26.3494 10.0125 19.2038 17.2375 19.1296 25.8375L19.2038 36.55C19.2038 37.0875 19.6612 37.5125 20.1805 37.475C29.9717 36.9625 37.7478 28.7875 37.7478 18.7625V10.0125H35.164Z" fill="url(#paint2_radial_55_457)"/>
<path d="M35.164 10.0125C26.3494 10.0125 19.2038 17.2375 19.1296 25.8375L19.2038 36.55C19.2038 37.0875 19.6612 37.5125 20.1805 37.475C29.9717 36.9625 37.7478 28.7875 37.7478 18.7625V10.0125H35.164Z" fill="url(#paint3_radial_55_457)"/>
<path d="M35.164 10.0125C26.3494 10.0125 19.2038 17.2375 19.1296 25.8375L19.2038 36.55C19.2038 37.0875 19.6612 37.5125 20.1805 37.475C29.9717 36.9625 37.7478 28.7875 37.7478 18.7625V10.0125H35.164Z" fill="url(#paint4_radial_55_457)"/>
<path d="M35.164 10.0125C26.3494 10.0125 19.2038 17.2375 19.1296 25.8375L19.2038 36.55C19.2038 37.0875 19.6612 37.5125 20.1805 37.475C29.9717 36.9625 37.7478 28.7875 37.7478 18.7625V10.0125H35.164Z" fill="url(#paint5_radial_55_457)"/>
<path d="M35.164 10.0125C26.3494 10.0125 19.2038 17.2375 19.1296 25.8375L19.2038 36.55C19.2038 37.0875 19.6612 37.5125 20.1805 37.475C29.9717 36.9625 37.7478 28.7875 37.7478 18.7625V10.0125H35.164Z" fill="url(#paint6_radial_55_457)"/>
<path d="M35.164 10.0125C26.3494 10.0125 19.2038 17.2375 19.1296 25.8375L19.2038 36.55C19.2038 37.0875 19.6612 37.5125 20.1805 37.475C29.9717 36.9625 37.7478 28.7875 37.7478 18.7625V10.0125H35.164Z" fill="url(#paint7_radial_55_457)"/>
<path d="M35.164 10.0125C26.3494 10.0125 19.2038 17.2375 19.1296 25.8375L19.2038 36.55C19.2038 37.0875 19.6612 37.5125 20.1805 37.475C29.9717 36.9625 37.7478 28.7875 37.7478 18.7625V10.0125H35.164Z" fill="url(#paint8_radial_55_457)" fill-opacity="0.8"/>
<path d="M35.164 10.0125C26.3494 10.0125 19.2038 17.2375 19.1296 25.8375L19.2038 36.55C19.2038 37.0875 19.6612 37.5125 20.1805 37.475C29.9717 36.9625 37.7478 28.7875 37.7478 18.7625V10.0125H35.164Z" fill="url(#paint9_radial_55_457)" fill-opacity="0.8"/>
<path d="M35.164 10.0125C26.3494 10.0125 19.2038 17.2375 19.1296 25.8375L19.2038 36.55C19.2038 37.0875 19.6612 37.5125 20.1805 37.475C29.9717 36.9625 37.7478 28.7875 37.7478 18.7625V10.0125H35.164Z" fill="url(#paint10_radial_55_457)"/>
<path d="M35.164 10.0125C26.3494 10.0125 19.2038 17.2375 19.1296 25.8375L19.2038 36.55C19.2038 37.0875 19.6612 37.5125 20.1805 37.475C29.9717 36.9625 37.7478 28.7875 37.7478 18.7625V10.0125H35.164Z" fill="url(#paint11_radial_55_457)"/>
<path d="M24.2231 31.15C24.0377 31.15 23.8522 31.0875 23.6915 30.975C23.2712 30.675 23.1723 30.0875 23.469 29.6625L35.5447 12.6333C35.8389 12.2444 35.9058 11.9165 35.9058 11.3674L35.8935 5.95001C35.8935 5.43751 36.3138 5.01251 36.8206 5.01251C37.3275 5.01251 37.7478 5.42501 37.7478 5.95001L37.7726 11.886C37.7726 12.5113 37.37 13.2282 37.1135 13.5789L24.9896 30.7625C24.8042 31.0125 24.5198 31.15 24.2231 31.15Z" fill="url(#paint12_linear_55_457)"/>
<path d="M24.2231 31.15C24.0377 31.15 23.8522 31.0875 23.6915 30.975C23.2712 30.675 23.1723 30.0875 23.469 29.6625L35.5447 12.6333C35.8389 12.2444 35.9058 11.9165 35.9058 11.3674L35.8935 5.95001C35.8935 5.43751 36.3138 5.01251 36.8206 5.01251C37.3275 5.01251 37.7478 5.42501 37.7478 5.95001L37.7726 11.886C37.7726 12.5113 37.37 13.2282 37.1135 13.5789L24.9896 30.7625C24.8042 31.0125 24.5198 31.15 24.2231 31.15Z" fill="url(#paint13_linear_55_457)" fill-opacity="0.8"/>
<path d="M24.2231 31.15C24.0377 31.15 23.8522 31.0875 23.6915 30.975C23.2712 30.675 23.1723 30.0875 23.469 29.6625L35.5447 12.6333C35.8389 12.2444 35.9058 11.9165 35.9058 11.3674L35.8935 5.95001C35.8935 5.43751 36.3138 5.01251 36.8206 5.01251C37.3275 5.01251 37.7478 5.42501 37.7478 5.95001L37.7726 11.886C37.7726 12.5113 37.37 13.2282 37.1135 13.5789L24.9896 30.7625C24.8042 31.0125 24.5198 31.15 24.2231 31.15Z" fill="url(#paint14_linear_55_457)"/>
<path d="M24.2231 31.15C24.0377 31.15 23.8522 31.0875 23.6915 30.975C23.2712 30.675 23.1723 30.0875 23.469 29.6625L35.5447 12.6333C35.8389 12.2444 35.9058 11.9165 35.9058 11.3674L35.8935 5.95001C35.8935 5.43751 36.3138 5.01251 36.8206 5.01251C37.3275 5.01251 37.7478 5.42501 37.7478 5.95001L37.7726 11.886C37.7726 12.5113 37.37 13.2282 37.1135 13.5789L24.9896 30.7625C24.8042 31.0125 24.5198 31.15 24.2231 31.15Z" fill="url(#paint15_linear_55_457)"/>
<path d="M24.2231 31.15C24.0377 31.15 23.8522 31.0875 23.6915 30.975C23.2712 30.675 23.1723 30.0875 23.469 29.6625L35.5447 12.6333C35.8389 12.2444 35.9058 11.9165 35.9058 11.3674L35.8935 5.95001C35.8935 5.43751 36.3138 5.01251 36.8206 5.01251C37.3275 5.01251 37.7478 5.42501 37.7478 5.95001L37.7726 11.886C37.7726 12.5113 37.37 13.2282 37.1135 13.5789L24.9896 30.7625C24.8042 31.0125 24.5198 31.15 24.2231 31.15Z" fill="url(#paint16_linear_55_457)" fill-opacity="0.8"/>
<path d="M24.2231 31.15C24.0377 31.15 23.8522 31.0875 23.6915 30.975C23.2712 30.675 23.1723 30.0875 23.469 29.6625L35.5447 12.6333C35.8389 12.2444 35.9058 11.9165 35.9058 11.3674L35.8935 5.95001C35.8935 5.43751 36.3138 5.01251 36.8206 5.01251C37.3275 5.01251 37.7478 5.42501 37.7478 5.95001L37.7726 11.886C37.7726 12.5113 37.37 13.2282 37.1135 13.5789L24.9896 30.7625C24.8042 31.0125 24.5198 31.15 24.2231 31.15Z" fill="url(#paint17_radial_55_457)"/>
<path d="M24.2231 31.15C24.0377 31.15 23.8522 31.0875 23.6915 30.975C23.2712 30.675 23.1723 30.0875 23.469 29.6625L35.5447 12.6333C35.8389 12.2444 35.9058 11.9165 35.9058 11.3674L35.8935 5.95001C35.8935 5.43751 36.3138 5.01251 36.8206 5.01251C37.3275 5.01251 37.7478 5.42501 37.7478 5.95001L37.7726 11.886C37.7726 12.5113 37.37 13.2282 37.1135 13.5789L24.9896 30.7625C24.8042 31.0125 24.5198 31.15 24.2231 31.15Z" fill="url(#paint18_radial_55_457)"/>
<path d="M24.2231 31.15C24.0377 31.15 23.8522 31.0875 23.6915 30.975C23.2712 30.675 23.1723 30.0875 23.469 29.6625L35.5447 12.6333C35.8389 12.2444 35.9058 11.9165 35.9058 11.3674L35.8935 5.95001C35.8935 5.43751 36.3138 5.01251 36.8206 5.01251C37.3275 5.01251 37.7478 5.42501 37.7478 5.95001L37.7726 11.886C37.7726 12.5113 37.37 13.2282 37.1135 13.5789L24.9896 30.7625C24.8042 31.0125 24.5198 31.15 24.2231 31.15Z" fill="url(#paint19_radial_55_457)"/>
<path d="M8.23825 13.275C8.23825 7.375 12.9731 2.5625 18.6105 2.5125L25.6201 2.5C25.9663 2.5 26.2506 2.8 26.2259 3.1625C25.8921 9.7 20.5267 15 13.9622 15H8.23825V13.275Z" fill="url(#paint20_radial_55_457)"/>
<path d="M8.23825 13.275C8.23825 7.375 12.9731 2.5625 18.6105 2.5125L25.6201 2.5C25.9663 2.5 26.2506 2.8 26.2259 3.1625C25.8921 9.7 20.5267 15 13.9622 15H8.23825V13.275Z" fill="url(#paint21_radial_55_457)"/>
<path d="M8.23825 13.275C8.23825 7.375 12.9731 2.5625 18.6105 2.5125L25.6201 2.5C25.9663 2.5 26.2506 2.8 26.2259 3.1625C25.8921 9.7 20.5267 15 13.9622 15H8.23825V13.275Z" fill="url(#paint22_radial_55_457)"/>
<path d="M8.23825 13.275C8.23825 7.375 12.9731 2.5625 18.6105 2.5125L25.6201 2.5C25.9663 2.5 26.2506 2.8 26.2259 3.1625C25.8921 9.7 20.5267 15 13.9622 15H8.23825V13.275Z" fill="url(#paint23_radial_55_457)"/>
<path d="M8.23825 13.275C8.23825 7.375 12.9731 2.5625 18.6105 2.5125L25.6201 2.5C25.9663 2.5 26.2506 2.8 26.2259 3.1625C25.8921 9.7 20.5267 15 13.9622 15H8.23825V13.275Z" fill="url(#paint24_radial_55_457)"/>
<path d="M8.23825 13.275C8.23825 7.375 12.9731 2.5625 18.6105 2.5125L25.6201 2.5C25.9663 2.5 26.2506 2.8 26.2259 3.1625C25.8921 9.7 20.5267 15 13.9622 15H8.23825V13.275Z" fill="url(#paint25_linear_55_457)"/>
<path d="M8.23825 13.275C8.23825 7.375 12.9731 2.5625 18.6105 2.5125L25.6201 2.5C25.9663 2.5 26.2506 2.8 26.2259 3.1625C25.8921 9.7 20.5267 15 13.9622 15H8.23825V13.275Z" fill="url(#paint26_radial_55_457)"/>
<path d="M8.23825 13.275C8.23825 7.375 12.9731 2.5625 18.6105 2.5125L25.6201 2.5C25.9663 2.5 26.2506 2.8 26.2259 3.1625C25.8921 9.7 20.5267 15 13.9622 15H8.23825V13.275Z" fill="url(#paint27_linear_55_457)"/>
<path d="M22.072 5.9502C22.072 5.8252 22.0349 5.7002 21.9607 5.5877C21.7629 5.3127 21.3797 5.2377 21.1077 5.4377L10.2904 13.2377C9.80828 13.5877 9.2396 13.7752 8.64619 13.7752H6.22311C5.87696 13.7752 5.60498 14.0502 5.60498 14.3877C5.60498 14.7252 5.87696 15.0127 6.22311 15.0127H8.64619C9.49921 15.0127 10.3151 14.7502 11.0075 14.2502L21.8124 6.4627C21.9855 6.3377 22.072 6.1502 22.072 5.9502Z" fill="url(#paint28_linear_55_457)"/>
<path d="M22.072 5.9502C22.072 5.8252 22.0349 5.7002 21.9607 5.5877C21.7629 5.3127 21.3797 5.2377 21.1077 5.4377L10.2904 13.2377C9.80828 13.5877 9.2396 13.7752 8.64619 13.7752H6.22311C5.87696 13.7752 5.60498 14.0502 5.60498 14.3877C5.60498 14.7252 5.87696 15.0127 6.22311 15.0127H8.64619C9.49921 15.0127 10.3151 14.7502 11.0075 14.2502L21.8124 6.4627C21.9855 6.3377 22.072 6.1502 22.072 5.9502Z" fill="url(#paint29_radial_55_457)"/>
<path d="M22.072 5.9502C22.072 5.8252 22.0349 5.7002 21.9607 5.5877C21.7629 5.3127 21.3797 5.2377 21.1077 5.4377L10.2904 13.2377C9.80828 13.5877 9.2396 13.7752 8.64619 13.7752H6.22311C5.87696 13.7752 5.60498 14.0502 5.60498 14.3877C5.60498 14.7252 5.87696 15.0127 6.22311 15.0127H8.64619C9.49921 15.0127 10.3151 14.7502 11.0075 14.2502L21.8124 6.4627C21.9855 6.3377 22.072 6.1502 22.072 5.9502Z" fill="url(#paint30_linear_55_457)"/>
<path d="M22.072 5.9502C22.072 5.8252 22.0349 5.7002 21.9607 5.5877C21.7629 5.3127 21.3797 5.2377 21.1077 5.4377L10.2904 13.2377C9.80828 13.5877 9.2396 13.7752 8.64619 13.7752H6.22311C5.87696 13.7752 5.60498 14.0502 5.60498 14.3877C5.60498 14.7252 5.87696 15.0127 6.22311 15.0127H8.64619C9.49921 15.0127 10.3151 14.7502 11.0075 14.2502L21.8124 6.4627C21.9855 6.3377 22.072 6.1502 22.072 5.9502Z" fill="url(#paint31_radial_55_457)"/>
<path d="M15.4951 28.6625C15.4951 24.6125 12.2437 21.3 8.37421 21.275L3.55278 21.2625C3.30553 21.2625 3.12009 21.475 3.13245 21.7125C3.36734 26.2125 7.05141 30.0125 11.5638 30.0125H15.4951V28.6625Z" fill="url(#paint32_radial_55_457)"/>
<path d="M15.4951 28.6625C15.4951 24.6125 12.2437 21.3 8.37421 21.275L3.55278 21.2625C3.30553 21.2625 3.12009 21.475 3.13245 21.7125C3.36734 26.2125 7.05141 30.0125 11.5638 30.0125H15.4951V28.6625Z" fill="url(#paint33_radial_55_457)"/>
<path d="M15.4951 28.6625C15.4951 24.6125 12.2437 21.3 8.37421 21.275L3.55278 21.2625C3.30553 21.2625 3.12009 21.475 3.13245 21.7125C3.36734 26.2125 7.05141 30.0125 11.5638 30.0125H15.4951V28.6625Z" fill="url(#paint34_radial_55_457)"/>
<path d="M15.4951 28.6625C15.4951 24.6125 12.2437 21.3 8.37421 21.275L3.55278 21.2625C3.30553 21.2625 3.12009 21.475 3.13245 21.7125C3.36734 26.2125 7.05141 30.0125 11.5638 30.0125H15.4951V28.6625Z" fill="url(#paint35_linear_55_457)" fill-opacity="0.8"/>
<path d="M15.4951 28.6625C15.4951 24.6125 12.2437 21.3 8.37421 21.275L3.55278 21.2625C3.30553 21.2625 3.12009 21.475 3.13245 21.7125C3.36734 26.2125 7.05141 30.0125 11.5638 30.0125H15.4951V28.6625Z" fill="url(#paint36_radial_55_457)"/>
<path d="M15.4951 28.6625C15.4951 24.6125 12.2437 21.3 8.37421 21.275L3.55278 21.2625C3.30553 21.2625 3.12009 21.475 3.13245 21.7125C3.36734 26.2125 7.05141 30.0125 11.5638 30.0125H15.4951V28.6625Z" fill="url(#paint37_radial_55_457)" fill-opacity="0.8"/>
<path d="M15.4951 28.6625C15.4951 24.6125 12.2437 21.3 8.37421 21.275L3.55278 21.2625C3.30553 21.2625 3.12009 21.475 3.13245 21.7125C3.36734 26.2125 7.05141 30.0125 11.5638 30.0125H15.4951V28.6625Z" fill="url(#paint38_radial_55_457)" fill-opacity="0.6"/>
<path d="M15.4951 28.6625C15.4951 24.6125 12.2437 21.3 8.37421 21.275L3.55278 21.2625C3.30553 21.2625 3.12009 21.475 3.13245 21.7125C3.36734 26.2125 7.05141 30.0125 11.5638 30.0125H15.4951V28.6625Z" fill="url(#paint39_radial_55_457)" fill-opacity="0.8"/>
<path d="M15.4951 28.6625C15.4951 24.6125 12.2437 21.3 8.37421 21.275L3.55278 21.2625C3.30553 21.2625 3.12009 21.475 3.13245 21.7125C3.36734 26.2125 7.05141 30.0125 11.5638 30.0125H15.4951V28.6625Z" fill="url(#paint40_radial_55_457)" fill-opacity="0.3"/>
<path d="M15.4951 28.6625C15.4951 24.6125 12.2437 21.3 8.37421 21.275L3.55278 21.2625C3.30553 21.2625 3.12009 21.475 3.13245 21.7125C3.36734 26.2125 7.05141 30.0125 11.5638 30.0125H15.4951V28.6625Z" fill="url(#paint41_radial_55_457)" fill-opacity="0.6"/>
<path d="M16.602 28.7751H15.8232C15.2298 28.7751 14.6611 28.5876 14.1789 28.2376L8.91246 24.4376C8.64048 24.2376 8.2696 24.3001 8.0718 24.5751C8.0718 24.5751 8.0718 24.5876 8.05944 24.5876C7.86163 24.8626 7.92345 25.2501 8.19543 25.4501L13.4619 29.2501C14.1542 29.7501 14.9701 30.0126 15.8232 30.0126H16.6144C16.9729 30.0126 17.2449 29.7126 17.2325 29.3501C17.2078 29.0251 16.9234 28.7751 16.602 28.7751Z" fill="#D55B3E"/>
<path d="M16.602 28.7751H15.8232C15.2298 28.7751 14.6611 28.5876 14.1789 28.2376L8.91246 24.4376C8.64048 24.2376 8.2696 24.3001 8.0718 24.5751C8.0718 24.5751 8.0718 24.5876 8.05944 24.5876C7.86163 24.8626 7.92345 25.2501 8.19543 25.4501L13.4619 29.2501C14.1542 29.7501 14.9701 30.0126 15.8232 30.0126H16.6144C16.9729 30.0126 17.2449 29.7126 17.2325 29.3501C17.2078 29.0251 16.9234 28.7751 16.602 28.7751Z" fill="url(#paint42_linear_55_457)"/>
<path d="M16.602 28.7751H15.8232C15.2298 28.7751 14.6611 28.5876 14.1789 28.2376L8.91246 24.4376C8.64048 24.2376 8.2696 24.3001 8.0718 24.5751C8.0718 24.5751 8.0718 24.5876 8.05944 24.5876C7.86163 24.8626 7.92345 25.2501 8.19543 25.4501L13.4619 29.2501C14.1542 29.7501 14.9701 30.0126 15.8232 30.0126H16.6144C16.9729 30.0126 17.2449 29.7126 17.2325 29.3501C17.2078 29.0251 16.9234 28.7751 16.602 28.7751Z" fill="url(#paint43_radial_55_457)"/>
<path d="M16.602 28.7751H15.8232C15.2298 28.7751 14.6611 28.5876 14.1789 28.2376L8.91246 24.4376C8.64048 24.2376 8.2696 24.3001 8.0718 24.5751C8.0718 24.5751 8.0718 24.5876 8.05944 24.5876C7.86163 24.8626 7.92345 25.2501 8.19543 25.4501L13.4619 29.2501C14.1542 29.7501 14.9701 30.0126 15.8232 30.0126H16.6144C16.9729 30.0126 17.2449 29.7126 17.2325 29.3501C17.2078 29.0251 16.9234 28.7751 16.602 28.7751Z" fill="url(#paint44_radial_55_457)"/>
<path d="M16.602 28.7751H15.8232C15.2298 28.7751 14.6611 28.5876 14.1789 28.2376L8.91246 24.4376C8.64048 24.2376 8.2696 24.3001 8.0718 24.5751C8.0718 24.5751 8.0718 24.5876 8.05944 24.5876C7.86163 24.8626 7.92345 25.2501 8.19543 25.4501L13.4619 29.2501C14.1542 29.7501 14.9701 30.0126 15.8232 30.0126H16.6144C16.9729 30.0126 17.2449 29.7126 17.2325 29.3501C17.2078 29.0251 16.9234 28.7751 16.602 28.7751Z" fill="url(#paint45_linear_55_457)"/>
<path d="M16.602 28.7751H15.8232C15.2298 28.7751 14.6611 28.5876 14.1789 28.2376L8.91246 24.4376C8.64048 24.2376 8.2696 24.3001 8.0718 24.5751C8.0718 24.5751 8.0718 24.5876 8.05944 24.5876C7.86163 24.8626 7.92345 25.2501 8.19543 25.4501L13.4619 29.2501C14.1542 29.7501 14.9701 30.0126 15.8232 30.0126H16.6144C16.9729 30.0126 17.2449 29.7126 17.2325 29.3501C17.2078 29.0251 16.9234 28.7751 16.602 28.7751Z" fill="url(#paint46_radial_55_457)"/>
<path d="M16.602 28.7751H15.8232C15.2298 28.7751 14.6611 28.5876 14.1789 28.2376L8.91246 24.4376C8.64048 24.2376 8.2696 24.3001 8.0718 24.5751C8.0718 24.5751 8.0718 24.5876 8.05944 24.5876C7.86163 24.8626 7.92345 25.2501 8.19543 25.4501L13.4619 29.2501C14.1542 29.7501 14.9701 30.0126 15.8232 30.0126H16.6144C16.9729 30.0126 17.2449 29.7126 17.2325 29.3501C17.2078 29.0251 16.9234 28.7751 16.602 28.7751Z" fill="url(#paint47_radial_55_457)"/>
<path d="M16.602 28.7751H15.8232C15.2298 28.7751 14.6611 28.5876 14.1789 28.2376L8.91246 24.4376C8.64048 24.2376 8.2696 24.3001 8.0718 24.5751C8.0718 24.5751 8.0718 24.5876 8.05944 24.5876C7.86163 24.8626 7.92345 25.2501 8.19543 25.4501L13.4619 29.2501C14.1542 29.7501 14.9701 30.0126 15.8232 30.0126H16.6144C16.9729 30.0126 17.2449 29.7126 17.2325 29.3501C17.2078 29.0251 16.9234 28.7751 16.602 28.7751Z" fill="url(#paint48_radial_55_457)"/>
<path d="M16.602 28.7751H15.8232C15.2298 28.7751 14.6611 28.5876 14.1789 28.2376L8.91246 24.4376C8.64048 24.2376 8.2696 24.3001 8.0718 24.5751C8.0718 24.5751 8.0718 24.5876 8.05944 24.5876C7.86163 24.8626 7.92345 25.2501 8.19543 25.4501L13.4619 29.2501C14.1542 29.7501 14.9701 30.0126 15.8232 30.0126H16.6144C16.9729 30.0126 17.2449 29.7126 17.2325 29.3501C17.2078 29.0251 16.9234 28.7751 16.602 28.7751Z" fill="url(#paint49_radial_55_457)"/>
<path d="M16.602 28.7751H15.8232C15.2298 28.7751 14.6611 28.5876 14.1789 28.2376L8.91246 24.4376C8.64048 24.2376 8.2696 24.3001 8.0718 24.5751C8.0718 24.5751 8.0718 24.5876 8.05944 24.5876C7.86163 24.8626 7.92345 25.2501 8.19543 25.4501L13.4619 29.2501C14.1542 29.7501 14.9701 30.0126 15.8232 30.0126H16.6144C16.9729 30.0126 17.2449 29.7126 17.2325 29.3501C17.2078 29.0251 16.9234 28.7751 16.602 28.7751Z" fill="url(#paint50_radial_55_457)"/>
<path d="M16.602 28.7751H15.8232C15.2298 28.7751 14.6611 28.5876 14.1789 28.2376L8.91246 24.4376C8.64048 24.2376 8.2696 24.3001 8.0718 24.5751C8.0718 24.5751 8.0718 24.5876 8.05944 24.5876C7.86163 24.8626 7.92345 25.2501 8.19543 25.4501L13.4619 29.2501C14.1542 29.7501 14.9701 30.0126 15.8232 30.0126H16.6144C16.9729 30.0126 17.2449 29.7126 17.2325 29.3501C17.2078 29.0251 16.9234 28.7751 16.602 28.7751Z" fill="url(#paint51_radial_55_457)" fill-opacity="0.8"/>
<path d="M16.602 28.7751H15.8232C15.2298 28.7751 14.6611 28.5876 14.1789 28.2376L8.91246 24.4376C8.64048 24.2376 8.2696 24.3001 8.0718 24.5751C8.0718 24.5751 8.0718 24.5876 8.05944 24.5876C7.86163 24.8626 7.92345 25.2501 8.19543 25.4501L13.4619 29.2501C14.1542 29.7501 14.9701 30.0126 15.8232 30.0126H16.6144C16.9729 30.0126 17.2449 29.7126 17.2325 29.3501C17.2078 29.0251 16.9234 28.7751 16.602 28.7751Z" fill="url(#paint52_radial_55_457)" fill-opacity="0.6"/>
<defs>
<radialGradient id="paint0_radial_55_457" cx="0" cy="0" r="1" gradientUnits="userSpaceOnUse" gradientTransform="translate(31.5658 16.0938) rotate(113.728) scale(17.6652 17.3693)">
<stop stop-color="#BB3F4A"/>
<stop offset="0.931229" stop-color="#D75A43"/>
</radialGradient>
<radialGradient id="paint1_radial_55_457" cx="0" cy="0" r="1" gradientUnits="userSpaceOnUse" gradientTransform="translate(17.9669 31.4063) scale(3.86332 13.9062)">
<stop stop-color="#BE412D"/>
<stop offset="1" stop-color="#BE412D" stop-opacity="0"/>
</radialGradient>
<radialGradient id="paint2_radial_55_457" cx="0" cy="0" r="1" gradientUnits="userSpaceOnUse" gradientTransform="translate(33.8003 27.1173) rotate(-130.556) scale(16.0875 18.8837)">
<stop stop-color="#AB2B2D" stop-opacity="0"/>
<stop offset="0.931932" stop-color="#AB2B2D" stop-opacity="0"/>
<stop offset="0.953989" stop-color="#AB2B2D" stop-opacity="0.143677"/>
<stop offset="0.97175" stop-color="#AB2B2D" stop-opacity="0.291527"/>
<stop offset="1" stop-color="#AB2B2D" stop-opacity="0.74"/>
</radialGradient>
<radialGradient id="paint3_radial_55_457" cx="0" cy="0" r="1" gradientUnits="userSpaceOnUse" gradientTransform="translate(39.897 27.9384) rotate(-171.135) scale(21.13 25.1065)">
<stop stop-color="#AB2B2D" stop-opacity="0"/>
<stop offset="0.931932" stop-color="#AB2B2D" stop-opacity="0"/>
<stop offset="0.953989" stop-color="#AB2B2D" stop-opacity="0.143677"/>
<stop offset="0.966189" stop-color="#AB2B2D" stop-opacity="0.291527"/>
<stop offset="1" stop-color="#AB2B2D" stop-opacity="0.74"/>
</radialGradient>
<radialGradient id="paint4_radial_55_457" cx="0" cy="0" r="1" gradientUnits="userSpaceOnUse" gradientTransform="translate(20.5587 19.6219) rotate(56.6015) scale(17.3811 20.348)">
<stop stop-color="#AB2B2D" stop-opacity="0"/>
<stop offset="0.931932" stop-color="#AB2B2D" stop-opacity="0"/>
<stop offset="0.953989" stop-color="#AB2B2D" stop-opacity="0.143677"/>
<stop offset="0.963477" stop-color="#AB2B2D" stop-opacity="0.291527"/>
<stop offset="1" stop-color="#AB2B2D" stop-opacity="0.74"/>
</radialGradient>
<radialGradient id="paint5_radial_55_457" cx="0" cy="0" r="1" gradientUnits="userSpaceOnUse" gradientTransform="translate(21.0346 17.9576) rotate(9.20053) scale(16.397 20.6633)">
<stop offset="0.0421216" stop-color="#D35D5C" stop-opacity="0"/>
<stop offset="0.91437" stop-color="#D35D5C" stop-opacity="0"/>
<stop offset="0.936422" stop-color="#D35D5C" stop-opacity="0.239117"/>
<stop offset="0.948855" stop-color="#D35D5C" stop-opacity="0.498359"/>
<stop offset="0.964942" stop-color="#D35D5C" stop-opacity="0.73"/>
<stop offset="0.972744" stop-color="#D35D5C" stop-opacity="0.64"/>
<stop offset="0.981412" stop-color="#D35D5C" stop-opacity="0.537676"/>
<stop offset="1" stop-color="#D35D5C" stop-opacity="0"/>
</radialGradient>
<radialGradient id="paint6_radial_55_457" cx="0" cy="0" r="1" gradientUnits="userSpaceOnUse" gradientTransform="translate(20.5587 19.6219) rotate(15.8615) scale(16.9748 20.1469)">
<stop stop-color="#AB2B2D" stop-opacity="0"/>
<stop offset="0.931932" stop-color="#AB2B2D" stop-opacity="0"/>
<stop offset="0.953989" stop-color="#AB2B2D" stop-opacity="0.143677"/>
<stop offset="0.963477" stop-color="#AB2B2D" stop-opacity="0.291527"/>
<stop offset="1" stop-color="#AB2B2D" stop-opacity="0.74"/>
</radialGradient>
<radialGradient id="paint7_radial_55_457" cx="0" cy="0" r="1" gradientUnits="userSpaceOnUse" gradientTransform="translate(36.7789 17.5863) rotate(-178.893) scale(0.554298 7.75187)">
<stop stop-color="#D35D5C" stop-opacity="0.83"/>
<stop offset="0.427083" stop-color="#D35D5C" stop-opacity="0.371997"/>
<stop offset="1" stop-color="#D35D5C" stop-opacity="0"/>
</radialGradient>
<radialGradient id="paint8_radial_55_457" cx="0" cy="0" r="1" gradientUnits="userSpaceOnUse" gradientTransform="translate(23.7508 30.4143) rotate(90) scale(1.45715 1.44114)">
<stop stop-color="#C34749"/>
<stop offset="0.41234" stop-color="#C34749" stop-opacity="0.727464"/>
<stop offset="0.684128" stop-color="#C34749" stop-opacity="0.453876"/>
<stop offset="0.861727" stop-color="#C34749" stop-opacity="0.146077"/>
<stop offset="1" stop-color="#C34749" stop-opacity="0"/>
</radialGradient>
<radialGradient id="paint9_radial_55_457" cx="0" cy="0" r="1" gradientUnits="userSpaceOnUse" gradientTransform="translate(24.9983 27.5949) rotate(-138.338) scale(0.757306 3.45515)">
<stop offset="0.02999" stop-color="#C34749"/>
<stop offset="0.388411" stop-color="#C34749" stop-opacity="0.727464"/>
<stop offset="0.783796" stop-color="#C34749" stop-opacity="0.215756"/>
<stop offset="1" stop-color="#C34749" stop-opacity="0"/>
</radialGradient>
<radialGradient id="paint10_radial_55_457" cx="0" cy="0" r="1" gradientUnits="userSpaceOnUse" gradientTransform="translate(29.3471 21.4723) rotate(-147.032) scale(1.22497 7.14142)">
<stop offset="0.02999" stop-color="#C34749"/>
<stop offset="0.547633" stop-color="#C34749" stop-opacity="0.727464"/>
<stop offset="1" stop-color="#C34749" stop-opacity="0"/>
</radialGradient>
<radialGradient id="paint11_radial_55_457" cx="0" cy="0" r="1" gradientUnits="userSpaceOnUse" gradientTransform="translate(27.8004 23.7042) rotate(-139.978) scale(0.852712 4.95834)">
<stop offset="0.02999" stop-color="#C34749"/>
<stop offset="0.547633" stop-color="#C34749" stop-opacity="0.727464"/>
<stop offset="0.779533" stop-color="#C34749" stop-opacity="0.319719"/>
<stop offset="1" stop-color="#C34749" stop-opacity="0"/>
</radialGradient>
<linearGradient id="paint12_linear_55_457" x1="37.7726" y1="12.9688" x2="20.209" y2="36.8976" gradientUnits="userSpaceOnUse">
<stop stop-color="#A52344"/>
<stop offset="1" stop-color="#C03C49"/>
</linearGradient>
<linearGradient id="paint13_linear_55_457" x1="32.9422" y1="19.4806" x2="31.2682" y2="18.2632" gradientUnits="userSpaceOnUse">
<stop stop-color="#C16073" stop-opacity="0"/>
<stop offset="0.152848" stop-color="#C16073" stop-opacity="0.185305"/>
<stop offset="0.289546" stop-color="#C16073" stop-opacity="0.56"/>
<stop offset="0.362936" stop-color="#C16073" stop-opacity="0.69"/>
<stop offset="0.431115" stop-color="#C16073" stop-opacity="0.6"/>
<stop offset="0.519019" stop-color="#C16073" stop-opacity="0.362739"/>
<stop offset="0.60476" stop-color="#C16073" stop-opacity="0.186323"/>
<stop offset="0.696161" stop-color="#C16073" stop-opacity="0"/>
<stop offset="0.882318" stop-color="#C16073" stop-opacity="0"/>
</linearGradient>
<linearGradient id="paint14_linear_55_457" x1="23.7212" y1="31.0544" x2="28.4497" y2="24.4069" gradientUnits="userSpaceOnUse">
<stop stop-color="#C03C49" stop-opacity="0.81"/>
<stop offset="0.349859" stop-color="#C03C49" stop-opacity="0.155618"/>
<stop offset="1" stop-color="#C03C49" stop-opacity="0"/>
</linearGradient>
<linearGradient id="paint15_linear_55_457" x1="23.6549" y1="31.2855" x2="26.6812" y2="26.9173" gradientUnits="userSpaceOnUse">
<stop stop-color="#A52344" stop-opacity="0.57"/>
<stop offset="0.434417" stop-color="#A52344" stop-opacity="0.128614"/>
<stop offset="1" stop-color="#A52344" stop-opacity="0"/>
</linearGradient>
<linearGradient id="paint16_linear_55_457" x1="37.8579" y1="8.48507" x2="35.3969" y2="8.48508" gradientUnits="userSpaceOnUse">
<stop stop-color="#C16073" stop-opacity="0"/>
<stop offset="0.152848" stop-color="#C16073" stop-opacity="0.185305"/>
<stop offset="0.289546" stop-color="#C16073" stop-opacity="0.56"/>
<stop offset="0.325548" stop-color="#C16073" stop-opacity="0.65"/>
<stop offset="0.362936" stop-color="#C16073" stop-opacity="0.73"/>
<stop offset="0.413852" stop-color="#C16073" stop-opacity="0.68"/>
<stop offset="0.543321" stop-color="#C16073" stop-opacity="0.2"/>
<stop offset="0.657931" stop-color="#C16073" stop-opacity="0"/>
<stop offset="0.882318" stop-color="#C16073" stop-opacity="0"/>
</linearGradient>
<radialGradient id="paint17_radial_55_457" cx="0" cy="0" r="1" gradientUnits="userSpaceOnUse" gradientTransform="translate(37.7857 12.028) rotate(-175.184) scale(0.703365 4.81837)">
<stop stop-color="#A52344"/>
<stop offset="0.523646" stop-color="#A52344" stop-opacity="0.662949"/>
<stop offset="1" stop-color="#A52344" stop-opacity="0"/>
</radialGradient>
<radialGradient id="paint18_radial_55_457" cx="0" cy="0" r="1" gradientUnits="userSpaceOnUse" gradientTransform="translate(37.4019 13.1922) rotate(-152.577) scale(0.714408 4.87208)">
<stop stop-color="#A52344"/>
<stop offset="0.523646" stop-color="#A52344" stop-opacity="0.662949"/>
<stop offset="0.813272" stop-color="#A52344" stop-opacity="0.255347"/>
<stop offset="1" stop-color="#A52344" stop-opacity="0"/>
</radialGradient>
<radialGradient id="paint19_radial_55_457" cx="0" cy="0" r="1" gradientUnits="userSpaceOnUse" gradientTransform="translate(36.867 5.01428) rotate(90) scale(1.25519 8.41195)">
<stop stop-color="#A52344"/>
<stop offset="0.510417" stop-color="#A52344" stop-opacity="0.662949"/>
<stop offset="1" stop-color="#A52344" stop-opacity="0"/>
</radialGradient>
<radialGradient id="paint20_radial_55_457" cx="0" cy="0" r="1" gradientUnits="userSpaceOnUse" gradientTransform="translate(23.3619 6.99164) rotate(151.46) scale(12.8022 13.9973)">
<stop stop-color="#E2773A"/>
<stop offset="1" stop-color="#DC8839"/>
</radialGradient>
<radialGradient id="paint21_radial_55_457" cx="0" cy="0" r="1" gradientUnits="userSpaceOnUse" gradientTransform="translate(22.2543 13.4527) rotate(-152.766) scale(5.64752 12.5528)">
<stop stop-color="#DD763B"/>
<stop offset="1" stop-color="#DD763B" stop-opacity="0"/>
</radialGradient>
<radialGradient id="paint22_radial_55_457" cx="0" cy="0" r="1" gradientUnits="userSpaceOnUse" gradientTransform="translate(9.79938 3.52009) rotate(3.55605) scale(16.4331 14.9235)">
<stop stop-color="#F89D66" stop-opacity="0"/>
<stop offset="0.857999" stop-color="#F89D66" stop-opacity="0"/>
<stop offset="0.904123" stop-color="#F89D66" stop-opacity="0"/>
<stop offset="0.918809" stop-color="#F89D66" stop-opacity="0.128304"/>
<stop offset="0.927549" stop-color="#F89D66" stop-opacity="0.403258"/>
<stop offset="0.936351" stop-color="#F89D66" stop-opacity="0.81"/>
<stop offset="0.943167" stop-color="#F89D66"/>
<stop offset="0.953746" stop-color="#F89D66" stop-opacity="0.901919"/>
<stop offset="0.965199" stop-color="#F89D66" stop-opacity="0.715425"/>
<stop offset="1" stop-color="#F89D66" stop-opacity="0"/>
</radialGradient>
<radialGradient id="paint23_radial_55_457" cx="0" cy="0" r="1" gradientUnits="userSpaceOnUse" gradientTransform="translate(17.6539 7.44001) rotate(60.9293) scale(6.30341 13.318)">
<stop stop-color="#D1663F" stop-opacity="0"/>
<stop offset="0.860335" stop-color="#D1663F" stop-opacity="0"/>
<stop offset="0.909692" stop-color="#D1663F" stop-opacity="0.283471"/>
<stop offset="0.979056" stop-color="#D1663F"/>
</radialGradient>
<radialGradient id="paint24_radial_55_457" cx="0" cy="0" r="1" gradientUnits="userSpaceOnUse" gradientTransform="translate(13.8078 2.84797) rotate(16.4011) scale(12.4394 13.7604)">
<stop stop-color="#D1663F" stop-opacity="0"/>
<stop offset="0.898058" stop-color="#D1663F" stop-opacity="0"/>
<stop offset="0.921841" stop-color="#D1663F" stop-opacity="0.283471"/>
<stop offset="0.967857" stop-color="#D1663F"/>
</radialGradient>
<linearGradient id="paint25_linear_55_457" x1="21.2969" y1="2.41228" x2="21.2969" y2="3.66684" gradientUnits="userSpaceOnUse">
<stop stop-color="#D88525"/>
<stop offset="1" stop-color="#D88525" stop-opacity="0"/>
</linearGradient>
<radialGradient id="paint26_radial_55_457" cx="0" cy="0" r="1" gradientUnits="userSpaceOnUse" gradientTransform="translate(18.4303 11.4537) rotate(-136.593) scale(9.12836 13.8145)">
<stop stop-color="#D88525" stop-opacity="0"/>
<stop offset="0.851858" stop-color="#D88525" stop-opacity="0"/>
<stop offset="0.893805" stop-color="#D88525" stop-opacity="0.183416"/>
<stop offset="0.983023" stop-color="#D88525"/>
</radialGradient>
<linearGradient id="paint27_linear_55_457" x1="13.3745" y1="3.04394" x2="13.3745" y2="15.0889" gradientUnits="userSpaceOnUse">
<stop stop-color="#D1663F" stop-opacity="0"/>
<stop offset="0.920792" stop-color="#D1663F" stop-opacity="0"/>
<stop offset="0.943141" stop-color="#D1663F" stop-opacity="0.186343"/>
<stop offset="0.990752" stop-color="#D1663F"/>
</linearGradient>
<linearGradient id="paint28_linear_55_457" x1="6.60884" y1="15.469" x2="20.3979" y2="4.91333" gradientUnits="userSpaceOnUse">
<stop stop-color="#D86443"/>
<stop offset="1" stop-color="#DC7C28"/>
<stop offset="1" stop-color="#DD7E24"/>
</linearGradient>
<radialGradient id="paint29_radial_55_457" cx="0" cy="0" r="1" gradientUnits="userSpaceOnUse" gradientTransform="translate(22.072 5.53426) rotate(140.203) scale(1.0475 1.01554)">
<stop stop-color="#EA9759"/>
<stop offset="1" stop-color="#EA9759" stop-opacity="0"/>
</radialGradient>
<linearGradient id="paint30_linear_55_457" x1="16.2805" y1="8.9074" x2="17.022" y2="9.92063" gradientUnits="userSpaceOnUse">
<stop stop-color="#F18546" stop-opacity="0"/>
<stop offset="0.294657" stop-color="#F18546" stop-opacity="0.174944"/>
<stop offset="0.386718" stop-color="#F18546" stop-opacity="0.429821"/>
<stop offset="0.48992" stop-color="#F18546" stop-opacity="0.66"/>
<stop offset="0.593034" stop-color="#F18546" stop-opacity="0.545834"/>
<stop offset="0.66787" stop-color="#F18546" stop-opacity="0.376044"/>
<stop offset="1" stop-color="#F18546" stop-opacity="0"/>
</linearGradient>
<radialGradient id="paint31_radial_55_457" cx="0" cy="0" r="1" gradientUnits="userSpaceOnUse" gradientTransform="translate(9.96222 14.4499) rotate(-20.7195) scale(5.72253 9.91694)">
<stop stop-color="#D86443"/>
<stop offset="1" stop-color="#D86443" stop-opacity="0"/>
</radialGradient>
<radialGradient id="paint32_radial_55_457" cx="0" cy="0" r="1" gradientUnits="userSpaceOnUse" gradientTransform="translate(14.181 25.6375) rotate(143.064) scale(6.08963 9.83112)">
<stop stop-color="#E4903B"/>
<stop offset="1" stop-color="#E2783C"/>
</radialGradient>
<radialGradient id="paint33_radial_55_457" cx="0" cy="0" r="1" gradientUnits="userSpaceOnUse" gradientTransform="translate(14.5673 24.4922) rotate(137.012) scale(3.38009 14.8715)">
<stop stop-color="#E38F3C"/>
<stop offset="1" stop-color="#E38F3C" stop-opacity="0"/>
</radialGradient>
<radialGradient id="paint34_radial_55_457" cx="0" cy="0" r="1" gradientUnits="userSpaceOnUse" gradientTransform="translate(9.31348 26.2891) rotate(-139.677) scale(4.10487 1.69467)">
<stop stop-color="#DA6A3B"/>
<stop offset="1" stop-color="#DA6A3B" stop-opacity="0"/>
</radialGradient>
<linearGradient id="paint35_linear_55_457" x1="9.31348" y1="21.2625" x2="9.31348" y2="22.1029" gradientUnits="userSpaceOnUse">
<stop stop-color="#D25F42"/>
<stop offset="0.557383" stop-color="#D25F42" stop-opacity="0.192215"/>
<stop offset="1" stop-color="#D25F42" stop-opacity="0"/>
</linearGradient>
<radialGradient id="paint36_radial_55_457" cx="0" cy="0" r="1" gradientUnits="userSpaceOnUse" gradientTransform="translate(6.82028 28.7412) rotate(-46.6087) scale(8.30755 9.08558)">
<stop stop-color="#EFA55A" stop-opacity="0"/>
<stop offset="0.864215" stop-color="#EFA55A" stop-opacity="0"/>
<stop offset="0.894508" stop-color="#EFA55A" stop-opacity="0.19937"/>
<stop offset="0.928069" stop-color="#EFA55A" stop-opacity="0.75"/>
<stop offset="0.942446" stop-color="#EFA55A" stop-opacity="0.73"/>
<stop offset="1" stop-color="#EFA55A" stop-opacity="0"/>
</radialGradient>
<radialGradient id="paint37_radial_55_457" cx="0" cy="0" r="1" gradientUnits="userSpaceOnUse" gradientTransform="translate(10.6364 22.1812) rotate(117.645) scale(0.711527 2.25974)">
<stop stop-color="#EFA55A"/>
<stop offset="0.650727" stop-color="#EFA55A" stop-opacity="0.210988"/>
<stop offset="1" stop-color="#EFA55A" stop-opacity="0"/>
</radialGradient>
<radialGradient id="paint38_radial_55_457" cx="0" cy="0" r="1" gradientUnits="userSpaceOnUse" gradientTransform="translate(9.65123 22.002) rotate(99.544) scale(0.495135 1.92042)">
<stop stop-color="#EFA55A" stop-opacity="0.9"/>
<stop offset="0.680144" stop-color="#EFA55A" stop-opacity="0.210988"/>
<stop offset="1" stop-color="#EFA55A" stop-opacity="0"/>
</radialGradient>
<radialGradient id="paint39_radial_55_457" cx="0" cy="0" r="1" gradientUnits="userSpaceOnUse" gradientTransform="translate(9.74225 24.3908) rotate(126.167) scale(4.90675 7.50277)">
<stop stop-color="#D25F42" stop-opacity="0"/>
<stop offset="0.848179" stop-color="#D25F42" stop-opacity="0"/>
<stop offset="0.873634" stop-color="#D25F42" stop-opacity="0.103591"/>
<stop offset="0.897615" stop-color="#D25F42" stop-opacity="0.230456"/>
<stop offset="0.989112" stop-color="#D25F42"/>
</radialGradient>
<radialGradient id="paint40_radial_55_457" cx="0" cy="0" r="1" gradientUnits="userSpaceOnUse" gradientTransform="translate(8.89982 25.6715) rotate(-58.6097) scale(4.55193 7.74989)">
<stop stop-color="#D25F42" stop-opacity="0"/>
<stop offset="0.848179" stop-color="#D25F42" stop-opacity="0"/>
<stop offset="0.873634" stop-color="#D25F42" stop-opacity="0.103591"/>
<stop offset="0.897615" stop-color="#D25F42" stop-opacity="0.230456"/>
<stop offset="0.989112" stop-color="#D25F42"/>
</radialGradient>
<radialGradient id="paint41_radial_55_457" cx="0" cy="0" r="1" gradientUnits="userSpaceOnUse" gradientTransform="translate(10.1582 21.5282) rotate(107.08) scale(0.714794 7.32456)">
<stop stop-color="#D25F42"/>
<stop offset="0.751659" stop-color="#D25F42" stop-opacity="0.192215"/>
<stop offset="1" stop-color="#D25F42" stop-opacity="0"/>
</radialGradient>
<linearGradient id="paint42_linear_55_457" x1="10.9673" y1="25.8621" x2="10.0881" y2="27.0828" gradientUnits="userSpaceOnUse">
<stop stop-color="#E6894F" stop-opacity="0"/>
<stop offset="0.204432" stop-color="#E6894F" stop-opacity="0"/>
<stop offset="0.308153" stop-color="#E6894F" stop-opacity="0.66"/>
<stop offset="0.363341" stop-color="#E6894F" stop-opacity="0.81"/>
<stop offset="0.412016" stop-color="#E6894F" stop-opacity="0.74"/>
<stop offset="0.551041" stop-color="#E6894F" stop-opacity="0.21"/>
<stop offset="0.654843" stop-color="#E6894F" stop-opacity="0"/>
<stop offset="1" stop-color="#E6894F" stop-opacity="0"/>
</linearGradient>
<radialGradient id="paint43_radial_55_457" cx="0" cy="0" r="1" gradientUnits="userSpaceOnUse" gradientTransform="translate(8.0279 24.7476) rotate(27.7344) scale(0.655613 1.08866)">
<stop stop-color="#D55B3E"/>
<stop offset="0.525609" stop-color="#D55B3E" stop-opacity="0.744305"/>
<stop offset="1" stop-color="#D55B3E" stop-opacity="0"/>
</radialGradient>
<radialGradient id="paint44_radial_55_457" cx="0" cy="0" r="1" gradientUnits="userSpaceOnUse" gradientTransform="translate(15.4213 29.9306) rotate(-112.679) scale(5.36295 8.78114)">
<stop stop-color="#D55B3E"/>
<stop offset="0.323468" stop-color="#D55B3E" stop-opacity="0.744305"/>
<stop offset="0.80171" stop-color="#D55B3E" stop-opacity="0"/>
</radialGradient>
<linearGradient id="paint45_linear_55_457" x1="12.2225" y1="26.7698" x2="11.3964" y2="27.9499" gradientUnits="userSpaceOnUse">
<stop stop-color="#E2812A" stop-opacity="0.81"/>
<stop offset="0.264436" stop-color="#E2812A" stop-opacity="0.370658"/>
<stop offset="0.416213" stop-color="#E2812A" stop-opacity="0"/>
<stop offset="1" stop-color="#E2812A" stop-opacity="0"/>
</linearGradient>
<radialGradient id="paint46_radial_55_457" cx="0" cy="0" r="1" gradientUnits="userSpaceOnUse" gradientTransform="translate(7.84029 24.6924) rotate(30.717) scale(0.544873 5.26408)">
<stop stop-color="#E2812A" stop-opacity="0.74"/>
<stop offset="0.586214" stop-color="#E2812A" stop-opacity="0.327339"/>
<stop offset="1" stop-color="#E2812A" stop-opacity="0"/>
</radialGradient>
<radialGradient id="paint47_radial_55_457" cx="0" cy="0" r="1" gradientUnits="userSpaceOnUse" gradientTransform="translate(16.2217 29.9745) rotate(-134.683) scale(3.11739 5.14364)">
<stop stop-color="#D55B3E"/>
<stop offset="0.618111" stop-color="#D55B3E" stop-opacity="0.744305"/>
<stop offset="0.80171" stop-color="#D55B3E" stop-opacity="0"/>
</radialGradient>
<radialGradient id="paint48_radial_55_457" cx="0" cy="0" r="1" gradientUnits="userSpaceOnUse" gradientTransform="translate(16.4845 28.4863) rotate(90) scale(0.712891 2.64018)">
<stop offset="0.341389" stop-color="#E2812A"/>
<stop offset="0.704825" stop-color="#E2812A" stop-opacity="0.327339"/>
<stop offset="0.917809" stop-color="#E2812A" stop-opacity="0.0836767"/>
<stop offset="1" stop-color="#E2812A" stop-opacity="0"/>
</radialGradient>
<radialGradient id="paint49_radial_55_457" cx="0" cy="0" r="1" gradientUnits="userSpaceOnUse" gradientTransform="translate(17.236 28.5665) rotate(139.002) scale(0.950138 3.56362)">
<stop offset="0.341389" stop-color="#E2812A"/>
<stop offset="0.648847" stop-color="#E2812A" stop-opacity="0.327339"/>
<stop offset="0.786458" stop-color="#E2812A" stop-opacity="0.0836767"/>
<stop offset="1" stop-color="#E2812A" stop-opacity="0"/>
</radialGradient>
<radialGradient id="paint50_radial_55_457" cx="0" cy="0" r="1" gradientUnits="userSpaceOnUse" gradientTransform="translate(17.677 30.2366) rotate(-141.501) scale(1.44919 5.44053)">
<stop offset="0.294039" stop-color="#E2812A"/>
<stop offset="0.587809" stop-color="#E2812A" stop-opacity="0.327339"/>
<stop offset="0.786458" stop-color="#E2812A" stop-opacity="0.0836767"/>
<stop offset="1" stop-color="#E2812A" stop-opacity="0"/>
</radialGradient>
<radialGradient id="paint51_radial_55_457" cx="0" cy="0" r="1" gradientUnits="userSpaceOnUse" gradientTransform="translate(14.0796 28.7939) rotate(118.787) scale(0.25071 1.30103)">
<stop stop-color="#E6894F" stop-opacity="0.62"/>
<stop offset="0.677083" stop-color="#E6894F" stop-opacity="0.16125"/>
<stop offset="1" stop-color="#E6894F" stop-opacity="0"/>
</radialGradient>
<radialGradient id="paint52_radial_55_457" cx="0" cy="0" r="1" gradientUnits="userSpaceOnUse" gradientTransform="translate(14.9662 29.1804) rotate(104.269) scale(0.28825 1.01625)">
<stop stop-color="#E6894F" stop-opacity="0.62"/>
<stop offset="0.7051" stop-color="#E6894F" stop-opacity="0.16125"/>
<stop offset="1" stop-color="#E6894F" stop-opacity="0"/>
</radialGradient>
</defs>
</svg>
