<svg width="40" height="40" viewBox="0 0 40 40" fill="none" xmlns="http://www.w3.org/2000/svg">
<rect x="17.2756" y="27.2131" width="5.65565" height="10.4528" rx="0.25" fill="#5B363A"/>
<rect x="17.2756" y="27.2131" width="5.65565" height="10.4528" rx="0.25" fill="url(#paint0_linear_55_477)"/>
<rect x="17.2756" y="27.2131" width="5.65565" height="10.4528" rx="0.25" fill="url(#paint1_linear_55_477)"/>
<rect x="17.2756" y="27.2131" width="5.65565" height="10.4528" rx="0.25" fill="url(#paint2_linear_55_477)"/>
<rect x="17.2756" y="27.2131" width="5.65565" height="10.4528" rx="0.25" fill="url(#paint3_linear_55_477)"/>
<rect x="17.2756" y="27.2131" width="5.65565" height="10.4528" rx="0.25" fill="url(#paint4_radial_55_477)"/>
<rect x="17.2756" y="27.2131" width="5.65565" height="10.4528" rx="0.25" fill="url(#paint5_linear_55_477)"/>
<rect x="17.2756" y="27.2131" width="5.65565" height="10.4528" rx="0.25" fill="url(#paint6_linear_55_477)"/>
<rect x="17.2756" y="27.2131" width="5.65565" height="10.4528" rx="0.25" fill="url(#paint7_radial_55_477)"/>
<path d="M26.5754 9.15878C26.4593 9.14715 26.37 9.0489 26.37 8.93223C26.37 5.42734 23.56 2.58606 20.0936 2.58606C16.6272 2.58606 13.8171 5.42734 13.8171 8.93223C13.8171 9.04973 13.7274 9.14881 13.6106 9.1609C10.3254 9.50073 7.76229 12.307 7.76229 15.7185C7.76229 16.7701 8.00585 17.7641 8.43898 18.6462C8.52657 18.8246 8.48161 19.0413 8.33031 19.1702C6.90485 20.3843 5.9992 22.2024 5.9992 24.2344C5.9992 27.8898 8.92989 30.853 12.545 30.853H27.6617C31.2769 30.853 34.2076 27.8898 34.2076 24.2344C34.2076 22.2024 33.3019 20.3843 31.8765 19.1702C31.7252 19.0413 31.6803 18.8246 31.7679 18.6462C32.201 17.7642 32.4445 16.7701 32.4445 15.7185C32.4445 12.2998 29.8707 9.48885 26.5754 9.15878Z" fill="url(#paint8_radial_55_477)"/>
<path d="M26.5754 9.15878C26.4593 9.14715 26.37 9.0489 26.37 8.93223C26.37 5.42734 23.56 2.58606 20.0936 2.58606C16.6272 2.58606 13.8171 5.42734 13.8171 8.93223C13.8171 9.04973 13.7274 9.14881 13.6106 9.1609C10.3254 9.50073 7.76229 12.307 7.76229 15.7185C7.76229 16.7701 8.00585 17.7641 8.43898 18.6462C8.52657 18.8246 8.48161 19.0413 8.33031 19.1702C6.90485 20.3843 5.9992 22.2024 5.9992 24.2344C5.9992 27.8898 8.92989 30.853 12.545 30.853H27.6617C31.2769 30.853 34.2076 27.8898 34.2076 24.2344C34.2076 22.2024 33.3019 20.3843 31.8765 19.1702C31.7252 19.0413 31.6803 18.8246 31.7679 18.6462C32.201 17.7642 32.4445 16.7701 32.4445 15.7185C32.4445 12.2998 29.8707 9.48885 26.5754 9.15878Z" fill="url(#paint9_radial_55_477)"/>
<path d="M26.5754 9.15878C26.4593 9.14715 26.37 9.0489 26.37 8.93223C26.37 5.42734 23.56 2.58606 20.0936 2.58606C16.6272 2.58606 13.8171 5.42734 13.8171 8.93223C13.8171 9.04973 13.7274 9.14881 13.6106 9.1609C10.3254 9.50073 7.76229 12.307 7.76229 15.7185C7.76229 16.7701 8.00585 17.7641 8.43898 18.6462C8.52657 18.8246 8.48161 19.0413 8.33031 19.1702C6.90485 20.3843 5.9992 22.2024 5.9992 24.2344C5.9992 27.8898 8.92989 30.853 12.545 30.853H27.6617C31.2769 30.853 34.2076 27.8898 34.2076 24.2344C34.2076 22.2024 33.3019 20.3843 31.8765 19.1702C31.7252 19.0413 31.6803 18.8246 31.7679 18.6462C32.201 17.7642 32.4445 16.7701 32.4445 15.7185C32.4445 12.2998 29.8707 9.48885 26.5754 9.15878Z" fill="url(#paint10_radial_55_477)"/>
<path d="M26.5754 9.15878C26.4593 9.14715 26.37 9.0489 26.37 8.93223C26.37 5.42734 23.56 2.58606 20.0936 2.58606C16.6272 2.58606 13.8171 5.42734 13.8171 8.93223C13.8171 9.04973 13.7274 9.14881 13.6106 9.1609C10.3254 9.50073 7.76229 12.307 7.76229 15.7185C7.76229 16.7701 8.00585 17.7641 8.43898 18.6462C8.52657 18.8246 8.48161 19.0413 8.33031 19.1702C6.90485 20.3843 5.9992 22.2024 5.9992 24.2344C5.9992 27.8898 8.92989 30.853 12.545 30.853H27.6617C31.2769 30.853 34.2076 27.8898 34.2076 24.2344C34.2076 22.2024 33.3019 20.3843 31.8765 19.1702C31.7252 19.0413 31.6803 18.8246 31.7679 18.6462C32.201 17.7642 32.4445 16.7701 32.4445 15.7185C32.4445 12.2998 29.8707 9.48885 26.5754 9.15878Z" fill="url(#paint11_radial_55_477)"/>
<path d="M26.5754 9.15878C26.4593 9.14715 26.37 9.0489 26.37 8.93223C26.37 5.42734 23.56 2.58606 20.0936 2.58606C16.6272 2.58606 13.8171 5.42734 13.8171 8.93223C13.8171 9.04973 13.7274 9.14881 13.6106 9.1609C10.3254 9.50073 7.76229 12.307 7.76229 15.7185C7.76229 16.7701 8.00585 17.7641 8.43898 18.6462C8.52657 18.8246 8.48161 19.0413 8.33031 19.1702C6.90485 20.3843 5.9992 22.2024 5.9992 24.2344C5.9992 27.8898 8.92989 30.853 12.545 30.853H27.6617C31.2769 30.853 34.2076 27.8898 34.2076 24.2344C34.2076 22.2024 33.3019 20.3843 31.8765 19.1702C31.7252 19.0413 31.6803 18.8246 31.7679 18.6462C32.201 17.7642 32.4445 16.7701 32.4445 15.7185C32.4445 12.2998 29.8707 9.48885 26.5754 9.15878Z" fill="url(#paint12_radial_55_477)"/>
<path d="M26.5754 9.15878C26.4593 9.14715 26.37 9.0489 26.37 8.93223C26.37 5.42734 23.56 2.58606 20.0936 2.58606C16.6272 2.58606 13.8171 5.42734 13.8171 8.93223C13.8171 9.04973 13.7274 9.14881 13.6106 9.1609C10.3254 9.50073 7.76229 12.307 7.76229 15.7185C7.76229 16.7701 8.00585 17.7641 8.43898 18.6462C8.52657 18.8246 8.48161 19.0413 8.33031 19.1702C6.90485 20.3843 5.9992 22.2024 5.9992 24.2344C5.9992 27.8898 8.92989 30.853 12.545 30.853H27.6617C31.2769 30.853 34.2076 27.8898 34.2076 24.2344C34.2076 22.2024 33.3019 20.3843 31.8765 19.1702C31.7252 19.0413 31.6803 18.8246 31.7679 18.6462C32.201 17.7642 32.4445 16.7701 32.4445 15.7185C32.4445 12.2998 29.8707 9.48885 26.5754 9.15878Z" fill="url(#paint13_radial_55_477)"/>
<path d="M26.5754 9.15878C26.4593 9.14715 26.37 9.0489 26.37 8.93223C26.37 5.42734 23.56 2.58606 20.0936 2.58606C16.6272 2.58606 13.8171 5.42734 13.8171 8.93223C13.8171 9.04973 13.7274 9.14881 13.6106 9.1609C10.3254 9.50073 7.76229 12.307 7.76229 15.7185C7.76229 16.7701 8.00585 17.7641 8.43898 18.6462C8.52657 18.8246 8.48161 19.0413 8.33031 19.1702C6.90485 20.3843 5.9992 22.2024 5.9992 24.2344C5.9992 27.8898 8.92989 30.853 12.545 30.853H27.6617C31.2769 30.853 34.2076 27.8898 34.2076 24.2344C34.2076 22.2024 33.3019 20.3843 31.8765 19.1702C31.7252 19.0413 31.6803 18.8246 31.7679 18.6462C32.201 17.7642 32.4445 16.7701 32.4445 15.7185C32.4445 12.2998 29.8707 9.48885 26.5754 9.15878Z" fill="url(#paint14_radial_55_477)"/>
<path d="M26.5754 9.15878C26.4593 9.14715 26.37 9.0489 26.37 8.93223C26.37 5.42734 23.56 2.58606 20.0936 2.58606C16.6272 2.58606 13.8171 5.42734 13.8171 8.93223C13.8171 9.04973 13.7274 9.14881 13.6106 9.1609C10.3254 9.50073 7.76229 12.307 7.76229 15.7185C7.76229 16.7701 8.00585 17.7641 8.43898 18.6462C8.52657 18.8246 8.48161 19.0413 8.33031 19.1702C6.90485 20.3843 5.9992 22.2024 5.9992 24.2344C5.9992 27.8898 8.92989 30.853 12.545 30.853H27.6617C31.2769 30.853 34.2076 27.8898 34.2076 24.2344C34.2076 22.2024 33.3019 20.3843 31.8765 19.1702C31.7252 19.0413 31.6803 18.8246 31.7679 18.6462C32.201 17.7642 32.4445 16.7701 32.4445 15.7185C32.4445 12.2998 29.8707 9.48885 26.5754 9.15878Z" fill="url(#paint15_radial_55_477)"/>
<path d="M26.5754 9.15878C26.4593 9.14715 26.37 9.0489 26.37 8.93223C26.37 5.42734 23.56 2.58606 20.0936 2.58606C16.6272 2.58606 13.8171 5.42734 13.8171 8.93223C13.8171 9.04973 13.7274 9.14881 13.6106 9.1609C10.3254 9.50073 7.76229 12.307 7.76229 15.7185C7.76229 16.7701 8.00585 17.7641 8.43898 18.6462C8.52657 18.8246 8.48161 19.0413 8.33031 19.1702C6.90485 20.3843 5.9992 22.2024 5.9992 24.2344C5.9992 27.8898 8.92989 30.853 12.545 30.853H27.6617C31.2769 30.853 34.2076 27.8898 34.2076 24.2344C34.2076 22.2024 33.3019 20.3843 31.8765 19.1702C31.7252 19.0413 31.6803 18.8246 31.7679 18.6462C32.201 17.7642 32.4445 16.7701 32.4445 15.7185C32.4445 12.2998 29.8707 9.48885 26.5754 9.15878Z" fill="url(#paint16_radial_55_477)"/>
<path d="M26.5754 9.15878C26.4593 9.14715 26.37 9.0489 26.37 8.93223C26.37 5.42734 23.56 2.58606 20.0936 2.58606C16.6272 2.58606 13.8171 5.42734 13.8171 8.93223C13.8171 9.04973 13.7274 9.14881 13.6106 9.1609C10.3254 9.50073 7.76229 12.307 7.76229 15.7185C7.76229 16.7701 8.00585 17.7641 8.43898 18.6462C8.52657 18.8246 8.48161 19.0413 8.33031 19.1702C6.90485 20.3843 5.9992 22.2024 5.9992 24.2344C5.9992 27.8898 8.92989 30.853 12.545 30.853H27.6617C31.2769 30.853 34.2076 27.8898 34.2076 24.2344C34.2076 22.2024 33.3019 20.3843 31.8765 19.1702C31.7252 19.0413 31.6803 18.8246 31.7679 18.6462C32.201 17.7642 32.4445 16.7701 32.4445 15.7185C32.4445 12.2998 29.8707 9.48885 26.5754 9.15878Z" fill="url(#paint17_radial_55_477)"/>
<path d="M26.5754 9.15878C26.4593 9.14715 26.37 9.0489 26.37 8.93223C26.37 5.42734 23.56 2.58606 20.0936 2.58606C16.6272 2.58606 13.8171 5.42734 13.8171 8.93223C13.8171 9.04973 13.7274 9.14881 13.6106 9.1609C10.3254 9.50073 7.76229 12.307 7.76229 15.7185C7.76229 16.7701 8.00585 17.7641 8.43898 18.6462C8.52657 18.8246 8.48161 19.0413 8.33031 19.1702C6.90485 20.3843 5.9992 22.2024 5.9992 24.2344C5.9992 27.8898 8.92989 30.853 12.545 30.853H27.6617C31.2769 30.853 34.2076 27.8898 34.2076 24.2344C34.2076 22.2024 33.3019 20.3843 31.8765 19.1702C31.7252 19.0413 31.6803 18.8246 31.7679 18.6462C32.201 17.7642 32.4445 16.7701 32.4445 15.7185C32.4445 12.2998 29.8707 9.48885 26.5754 9.15878Z" fill="url(#paint18_radial_55_477)"/>
<path d="M26.5754 9.15878C26.4593 9.14715 26.37 9.0489 26.37 8.93223C26.37 5.42734 23.56 2.58606 20.0936 2.58606C16.6272 2.58606 13.8171 5.42734 13.8171 8.93223C13.8171 9.04973 13.7274 9.14881 13.6106 9.1609C10.3254 9.50073 7.76229 12.307 7.76229 15.7185C7.76229 16.7701 8.00585 17.7641 8.43898 18.6462C8.52657 18.8246 8.48161 19.0413 8.33031 19.1702C6.90485 20.3843 5.9992 22.2024 5.9992 24.2344C5.9992 27.8898 8.92989 30.853 12.545 30.853H27.6617C31.2769 30.853 34.2076 27.8898 34.2076 24.2344C34.2076 22.2024 33.3019 20.3843 31.8765 19.1702C31.7252 19.0413 31.6803 18.8246 31.7679 18.6462C32.201 17.7642 32.4445 16.7701 32.4445 15.7185C32.4445 12.2998 29.8707 9.48885 26.5754 9.15878Z" fill="url(#paint19_radial_55_477)" fill-opacity="0.6"/>
<path d="M26.5754 9.15878C26.4593 9.14715 26.37 9.0489 26.37 8.93223C26.37 5.42734 23.56 2.58606 20.0936 2.58606C16.6272 2.58606 13.8171 5.42734 13.8171 8.93223C13.8171 9.04973 13.7274 9.14881 13.6106 9.1609C10.3254 9.50073 7.76229 12.307 7.76229 15.7185C7.76229 16.7701 8.00585 17.7641 8.43898 18.6462C8.52657 18.8246 8.48161 19.0413 8.33031 19.1702C6.90485 20.3843 5.9992 22.2024 5.9992 24.2344C5.9992 27.8898 8.92989 30.853 12.545 30.853H27.6617C31.2769 30.853 34.2076 27.8898 34.2076 24.2344C34.2076 22.2024 33.3019 20.3843 31.8765 19.1702C31.7252 19.0413 31.6803 18.8246 31.7679 18.6462C32.201 17.7642 32.4445 16.7701 32.4445 15.7185C32.4445 12.2998 29.8707 9.48885 26.5754 9.15878Z" fill="url(#paint20_radial_55_477)" fill-opacity="0.6"/>
<path d="M26.5754 9.15878C26.4593 9.14715 26.37 9.0489 26.37 8.93223C26.37 5.42734 23.56 2.58606 20.0936 2.58606C16.6272 2.58606 13.8171 5.42734 13.8171 8.93223C13.8171 9.04973 13.7274 9.14881 13.6106 9.1609C10.3254 9.50073 7.76229 12.307 7.76229 15.7185C7.76229 16.7701 8.00585 17.7641 8.43898 18.6462C8.52657 18.8246 8.48161 19.0413 8.33031 19.1702C6.90485 20.3843 5.9992 22.2024 5.9992 24.2344C5.9992 27.8898 8.92989 30.853 12.545 30.853H27.6617C31.2769 30.853 34.2076 27.8898 34.2076 24.2344C34.2076 22.2024 33.3019 20.3843 31.8765 19.1702C31.7252 19.0413 31.6803 18.8246 31.7679 18.6462C32.201 17.7642 32.4445 16.7701 32.4445 15.7185C32.4445 12.2998 29.8707 9.48885 26.5754 9.15878Z" fill="url(#paint21_radial_55_477)"/>
<path d="M26.5754 9.15878C26.4593 9.14715 26.37 9.0489 26.37 8.93223C26.37 5.42734 23.56 2.58606 20.0936 2.58606C16.6272 2.58606 13.8171 5.42734 13.8171 8.93223C13.8171 9.04973 13.7274 9.14881 13.6106 9.1609C10.3254 9.50073 7.76229 12.307 7.76229 15.7185C7.76229 16.7701 8.00585 17.7641 8.43898 18.6462C8.52657 18.8246 8.48161 19.0413 8.33031 19.1702C6.90485 20.3843 5.9992 22.2024 5.9992 24.2344C5.9992 27.8898 8.92989 30.853 12.545 30.853H27.6617C31.2769 30.853 34.2076 27.8898 34.2076 24.2344C34.2076 22.2024 33.3019 20.3843 31.8765 19.1702C31.7252 19.0413 31.6803 18.8246 31.7679 18.6462C32.201 17.7642 32.4445 16.7701 32.4445 15.7185C32.4445 12.2998 29.8707 9.48885 26.5754 9.15878Z" fill="url(#paint22_radial_55_477)"/>
<path d="M26.5754 9.15878C26.4593 9.14715 26.37 9.0489 26.37 8.93223C26.37 5.42734 23.56 2.58606 20.0936 2.58606C16.6272 2.58606 13.8171 5.42734 13.8171 8.93223C13.8171 9.04973 13.7274 9.14881 13.6106 9.1609C10.3254 9.50073 7.76229 12.307 7.76229 15.7185C7.76229 16.7701 8.00585 17.7641 8.43898 18.6462C8.52657 18.8246 8.48161 19.0413 8.33031 19.1702C6.90485 20.3843 5.9992 22.2024 5.9992 24.2344C5.9992 27.8898 8.92989 30.853 12.545 30.853H27.6617C31.2769 30.853 34.2076 27.8898 34.2076 24.2344C34.2076 22.2024 33.3019 20.3843 31.8765 19.1702C31.7252 19.0413 31.6803 18.8246 31.7679 18.6462C32.201 17.7642 32.4445 16.7701 32.4445 15.7185C32.4445 12.2998 29.8707 9.48885 26.5754 9.15878Z" fill="url(#paint23_radial_55_477)"/>
<path d="M26.5754 9.15878C26.4593 9.14715 26.37 9.0489 26.37 8.93223C26.37 5.42734 23.56 2.58606 20.0936 2.58606C16.6272 2.58606 13.8171 5.42734 13.8171 8.93223C13.8171 9.04973 13.7274 9.14881 13.6106 9.1609C10.3254 9.50073 7.76229 12.307 7.76229 15.7185C7.76229 16.7701 8.00585 17.7641 8.43898 18.6462C8.52657 18.8246 8.48161 19.0413 8.33031 19.1702C6.90485 20.3843 5.9992 22.2024 5.9992 24.2344C5.9992 27.8898 8.92989 30.853 12.545 30.853H27.6617C31.2769 30.853 34.2076 27.8898 34.2076 24.2344C34.2076 22.2024 33.3019 20.3843 31.8765 19.1702C31.7252 19.0413 31.6803 18.8246 31.7679 18.6462C32.201 17.7642 32.4445 16.7701 32.4445 15.7185C32.4445 12.2998 29.8707 9.48885 26.5754 9.15878Z" fill="url(#paint24_radial_55_477)" fill-opacity="0.6"/>
<path d="M26.5754 9.15878C26.4593 9.14715 26.37 9.0489 26.37 8.93223C26.37 5.42734 23.56 2.58606 20.0936 2.58606C16.6272 2.58606 13.8171 5.42734 13.8171 8.93223C13.8171 9.04973 13.7274 9.14881 13.6106 9.1609C10.3254 9.50073 7.76229 12.307 7.76229 15.7185C7.76229 16.7701 8.00585 17.7641 8.43898 18.6462C8.52657 18.8246 8.48161 19.0413 8.33031 19.1702C6.90485 20.3843 5.9992 22.2024 5.9992 24.2344C5.9992 27.8898 8.92989 30.853 12.545 30.853H27.6617C31.2769 30.853 34.2076 27.8898 34.2076 24.2344C34.2076 22.2024 33.3019 20.3843 31.8765 19.1702C31.7252 19.0413 31.6803 18.8246 31.7679 18.6462C32.201 17.7642 32.4445 16.7701 32.4445 15.7185C32.4445 12.2998 29.8707 9.48885 26.5754 9.15878Z" fill="url(#paint25_radial_55_477)" fill-opacity="0.6"/>
<path d="M26.5754 9.15878C26.4593 9.14715 26.37 9.0489 26.37 8.93223C26.37 5.42734 23.56 2.58606 20.0936 2.58606C16.6272 2.58606 13.8171 5.42734 13.8171 8.93223C13.8171 9.04973 13.7274 9.14881 13.6106 9.1609C10.3254 9.50073 7.76229 12.307 7.76229 15.7185C7.76229 16.7701 8.00585 17.7641 8.43898 18.6462C8.52657 18.8246 8.48161 19.0413 8.33031 19.1702C6.90485 20.3843 5.9992 22.2024 5.9992 24.2344C5.9992 27.8898 8.92989 30.853 12.545 30.853H27.6617C31.2769 30.853 34.2076 27.8898 34.2076 24.2344C34.2076 22.2024 33.3019 20.3843 31.8765 19.1702C31.7252 19.0413 31.6803 18.8246 31.7679 18.6462C32.201 17.7642 32.4445 16.7701 32.4445 15.7185C32.4445 12.2998 29.8707 9.48885 26.5754 9.15878Z" fill="url(#paint26_radial_55_477)"/>
<path d="M26.5754 9.15878C26.4593 9.14715 26.37 9.0489 26.37 8.93223C26.37 5.42734 23.56 2.58606 20.0936 2.58606C16.6272 2.58606 13.8171 5.42734 13.8171 8.93223C13.8171 9.04973 13.7274 9.14881 13.6106 9.1609C10.3254 9.50073 7.76229 12.307 7.76229 15.7185C7.76229 16.7701 8.00585 17.7641 8.43898 18.6462C8.52657 18.8246 8.48161 19.0413 8.33031 19.1702C6.90485 20.3843 5.9992 22.2024 5.9992 24.2344C5.9992 27.8898 8.92989 30.853 12.545 30.853H27.6617C31.2769 30.853 34.2076 27.8898 34.2076 24.2344C34.2076 22.2024 33.3019 20.3843 31.8765 19.1702C31.7252 19.0413 31.6803 18.8246 31.7679 18.6462C32.201 17.7642 32.4445 16.7701 32.4445 15.7185C32.4445 12.2998 29.8707 9.48885 26.5754 9.15878Z" fill="url(#paint27_radial_55_477)"/>
<path d="M26.5754 9.15878C26.4593 9.14715 26.37 9.0489 26.37 8.93223C26.37 5.42734 23.56 2.58606 20.0936 2.58606C16.6272 2.58606 13.8171 5.42734 13.8171 8.93223C13.8171 9.04973 13.7274 9.14881 13.6106 9.1609C10.3254 9.50073 7.76229 12.307 7.76229 15.7185C7.76229 16.7701 8.00585 17.7641 8.43898 18.6462C8.52657 18.8246 8.48161 19.0413 8.33031 19.1702C6.90485 20.3843 5.9992 22.2024 5.9992 24.2344C5.9992 27.8898 8.92989 30.853 12.545 30.853H27.6617C31.2769 30.853 34.2076 27.8898 34.2076 24.2344C34.2076 22.2024 33.3019 20.3843 31.8765 19.1702C31.7252 19.0413 31.6803 18.8246 31.7679 18.6462C32.201 17.7642 32.4445 16.7701 32.4445 15.7185C32.4445 12.2998 29.8707 9.48885 26.5754 9.15878Z" fill="url(#paint28_radial_55_477)" fill-opacity="0.8"/>
<path d="M26.5754 9.15878C26.4593 9.14715 26.37 9.0489 26.37 8.93223C26.37 5.42734 23.56 2.58606 20.0936 2.58606C16.6272 2.58606 13.8171 5.42734 13.8171 8.93223C13.8171 9.04973 13.7274 9.14881 13.6106 9.1609C10.3254 9.50073 7.76229 12.307 7.76229 15.7185C7.76229 16.7701 8.00585 17.7641 8.43898 18.6462C8.52657 18.8246 8.48161 19.0413 8.33031 19.1702C6.90485 20.3843 5.9992 22.2024 5.9992 24.2344C5.9992 27.8898 8.92989 30.853 12.545 30.853H27.6617C31.2769 30.853 34.2076 27.8898 34.2076 24.2344C34.2076 22.2024 33.3019 20.3843 31.8765 19.1702C31.7252 19.0413 31.6803 18.8246 31.7679 18.6462C32.201 17.7642 32.4445 16.7701 32.4445 15.7185C32.4445 12.2998 29.8707 9.48885 26.5754 9.15878Z" fill="url(#paint29_radial_55_477)"/>
<path d="M26.5754 9.15878C26.4593 9.14715 26.37 9.0489 26.37 8.93223C26.37 5.42734 23.56 2.58606 20.0936 2.58606C16.6272 2.58606 13.8171 5.42734 13.8171 8.93223C13.8171 9.04973 13.7274 9.14881 13.6106 9.1609C10.3254 9.50073 7.76229 12.307 7.76229 15.7185C7.76229 16.7701 8.00585 17.7641 8.43898 18.6462C8.52657 18.8246 8.48161 19.0413 8.33031 19.1702C6.90485 20.3843 5.9992 22.2024 5.9992 24.2344C5.9992 27.8898 8.92989 30.853 12.545 30.853H27.6617C31.2769 30.853 34.2076 27.8898 34.2076 24.2344C34.2076 22.2024 33.3019 20.3843 31.8765 19.1702C31.7252 19.0413 31.6803 18.8246 31.7679 18.6462C32.201 17.7642 32.4445 16.7701 32.4445 15.7185C32.4445 12.2998 29.8707 9.48885 26.5754 9.15878Z" fill="url(#paint30_linear_55_477)"/>
<path d="M26.5754 9.15878C26.4593 9.14715 26.37 9.0489 26.37 8.93223C26.37 5.42734 23.56 2.58606 20.0936 2.58606C16.6272 2.58606 13.8171 5.42734 13.8171 8.93223C13.8171 9.04973 13.7274 9.14881 13.6106 9.1609C10.3254 9.50073 7.76229 12.307 7.76229 15.7185C7.76229 16.7701 8.00585 17.7641 8.43898 18.6462C8.52657 18.8246 8.48161 19.0413 8.33031 19.1702C6.90485 20.3843 5.9992 22.2024 5.9992 24.2344C5.9992 27.8898 8.92989 30.853 12.545 30.853H27.6617C31.2769 30.853 34.2076 27.8898 34.2076 24.2344C34.2076 22.2024 33.3019 20.3843 31.8765 19.1702C31.7252 19.0413 31.6803 18.8246 31.7679 18.6462C32.201 17.7642 32.4445 16.7701 32.4445 15.7185C32.4445 12.2998 29.8707 9.48885 26.5754 9.15878Z" fill="url(#paint31_radial_55_477)" fill-opacity="0.8"/>
<path d="M26.5754 9.15878C26.4593 9.14715 26.37 9.0489 26.37 8.93223C26.37 5.42734 23.56 2.58606 20.0936 2.58606C16.6272 2.58606 13.8171 5.42734 13.8171 8.93223C13.8171 9.04973 13.7274 9.14881 13.6106 9.1609C10.3254 9.50073 7.76229 12.307 7.76229 15.7185C7.76229 16.7701 8.00585 17.7641 8.43898 18.6462C8.52657 18.8246 8.48161 19.0413 8.33031 19.1702C6.90485 20.3843 5.9992 22.2024 5.9992 24.2344C5.9992 27.8898 8.92989 30.853 12.545 30.853H27.6617C31.2769 30.853 34.2076 27.8898 34.2076 24.2344C34.2076 22.2024 33.3019 20.3843 31.8765 19.1702C31.7252 19.0413 31.6803 18.8246 31.7679 18.6462C32.201 17.7642 32.4445 16.7701 32.4445 15.7185C32.4445 12.2998 29.8707 9.48885 26.5754 9.15878Z" fill="url(#paint32_radial_55_477)"/>
<path d="M26.5754 9.15878C26.4593 9.14715 26.37 9.0489 26.37 8.93223C26.37 5.42734 23.56 2.58606 20.0936 2.58606C16.6272 2.58606 13.8171 5.42734 13.8171 8.93223C13.8171 9.04973 13.7274 9.14881 13.6106 9.1609C10.3254 9.50073 7.76229 12.307 7.76229 15.7185C7.76229 16.7701 8.00585 17.7641 8.43898 18.6462C8.52657 18.8246 8.48161 19.0413 8.33031 19.1702C6.90485 20.3843 5.9992 22.2024 5.9992 24.2344C5.9992 27.8898 8.92989 30.853 12.545 30.853H27.6617C31.2769 30.853 34.2076 27.8898 34.2076 24.2344C34.2076 22.2024 33.3019 20.3843 31.8765 19.1702C31.7252 19.0413 31.6803 18.8246 31.7679 18.6462C32.201 17.7642 32.4445 16.7701 32.4445 15.7185C32.4445 12.2998 29.8707 9.48885 26.5754 9.15878Z" fill="url(#paint33_radial_55_477)"/>
<path d="M26.5754 9.15878C26.4593 9.14715 26.37 9.0489 26.37 8.93223C26.37 5.42734 23.56 2.58606 20.0936 2.58606C16.6272 2.58606 13.8171 5.42734 13.8171 8.93223C13.8171 9.04973 13.7274 9.14881 13.6106 9.1609C10.3254 9.50073 7.76229 12.307 7.76229 15.7185C7.76229 16.7701 8.00585 17.7641 8.43898 18.6462C8.52657 18.8246 8.48161 19.0413 8.33031 19.1702C6.90485 20.3843 5.9992 22.2024 5.9992 24.2344C5.9992 27.8898 8.92989 30.853 12.545 30.853H27.6617C31.2769 30.853 34.2076 27.8898 34.2076 24.2344C34.2076 22.2024 33.3019 20.3843 31.8765 19.1702C31.7252 19.0413 31.6803 18.8246 31.7679 18.6462C32.201 17.7642 32.4445 16.7701 32.4445 15.7185C32.4445 12.2998 29.8707 9.48885 26.5754 9.15878Z" fill="url(#paint34_radial_55_477)" fill-opacity="0.8"/>
<path d="M26.5754 9.15878C26.4593 9.14715 26.37 9.0489 26.37 8.93223C26.37 5.42734 23.56 2.58606 20.0936 2.58606C16.6272 2.58606 13.8171 5.42734 13.8171 8.93223C13.8171 9.04973 13.7274 9.14881 13.6106 9.1609C10.3254 9.50073 7.76229 12.307 7.76229 15.7185C7.76229 16.7701 8.00585 17.7641 8.43898 18.6462C8.52657 18.8246 8.48161 19.0413 8.33031 19.1702C6.90485 20.3843 5.9992 22.2024 5.9992 24.2344C5.9992 27.8898 8.92989 30.853 12.545 30.853H27.6617C31.2769 30.853 34.2076 27.8898 34.2076 24.2344C34.2076 22.2024 33.3019 20.3843 31.8765 19.1702C31.7252 19.0413 31.6803 18.8246 31.7679 18.6462C32.201 17.7642 32.4445 16.7701 32.4445 15.7185C32.4445 12.2998 29.8707 9.48885 26.5754 9.15878Z" fill="url(#paint35_radial_55_477)" fill-opacity="0.8"/>
<path d="M26.5754 9.15878C26.4593 9.14715 26.37 9.0489 26.37 8.93223C26.37 5.42734 23.56 2.58606 20.0936 2.58606C16.6272 2.58606 13.8171 5.42734 13.8171 8.93223C13.8171 9.04973 13.7274 9.14881 13.6106 9.1609C10.3254 9.50073 7.76229 12.307 7.76229 15.7185C7.76229 16.7701 8.00585 17.7641 8.43898 18.6462C8.52657 18.8246 8.48161 19.0413 8.33031 19.1702C6.90485 20.3843 5.9992 22.2024 5.9992 24.2344C5.9992 27.8898 8.92989 30.853 12.545 30.853H27.6617C31.2769 30.853 34.2076 27.8898 34.2076 24.2344C34.2076 22.2024 33.3019 20.3843 31.8765 19.1702C31.7252 19.0413 31.6803 18.8246 31.7679 18.6462C32.201 17.7642 32.4445 16.7701 32.4445 15.7185C32.4445 12.2998 29.8707 9.48885 26.5754 9.15878Z" fill="url(#paint36_radial_55_477)"/>
<path d="M26.5754 9.15878C26.4593 9.14715 26.37 9.0489 26.37 8.93223C26.37 5.42734 23.56 2.58606 20.0936 2.58606C16.6272 2.58606 13.8171 5.42734 13.8171 8.93223C13.8171 9.04973 13.7274 9.14881 13.6106 9.1609C10.3254 9.50073 7.76229 12.307 7.76229 15.7185C7.76229 16.7701 8.00585 17.7641 8.43898 18.6462C8.52657 18.8246 8.48161 19.0413 8.33031 19.1702C6.90485 20.3843 5.9992 22.2024 5.9992 24.2344C5.9992 27.8898 8.92989 30.853 12.545 30.853H27.6617C31.2769 30.853 34.2076 27.8898 34.2076 24.2344C34.2076 22.2024 33.3019 20.3843 31.8765 19.1702C31.7252 19.0413 31.6803 18.8246 31.7679 18.6462C32.201 17.7642 32.4445 16.7701 32.4445 15.7185C32.4445 12.2998 29.8707 9.48885 26.5754 9.15878Z" fill="url(#paint37_radial_55_477)" fill-opacity="0.5"/>
<path d="M26.5754 9.15878C26.4593 9.14715 26.37 9.0489 26.37 8.93223C26.37 5.42734 23.56 2.58606 20.0936 2.58606C16.6272 2.58606 13.8171 5.42734 13.8171 8.93223C13.8171 9.04973 13.7274 9.14881 13.6106 9.1609C10.3254 9.50073 7.76229 12.307 7.76229 15.7185C7.76229 16.7701 8.00585 17.7641 8.43898 18.6462C8.52657 18.8246 8.48161 19.0413 8.33031 19.1702C6.90485 20.3843 5.9992 22.2024 5.9992 24.2344C5.9992 27.8898 8.92989 30.853 12.545 30.853H27.6617C31.2769 30.853 34.2076 27.8898 34.2076 24.2344C34.2076 22.2024 33.3019 20.3843 31.8765 19.1702C31.7252 19.0413 31.6803 18.8246 31.7679 18.6462C32.201 17.7642 32.4445 16.7701 32.4445 15.7185C32.4445 12.2998 29.8707 9.48885 26.5754 9.15878Z" fill="url(#paint38_radial_55_477)" fill-opacity="0.5"/>
<path d="M26.5754 9.15878C26.4593 9.14715 26.37 9.0489 26.37 8.93223C26.37 5.42734 23.56 2.58606 20.0936 2.58606C16.6272 2.58606 13.8171 5.42734 13.8171 8.93223C13.8171 9.04973 13.7274 9.14881 13.6106 9.1609C10.3254 9.50073 7.76229 12.307 7.76229 15.7185C7.76229 16.7701 8.00585 17.7641 8.43898 18.6462C8.52657 18.8246 8.48161 19.0413 8.33031 19.1702C6.90485 20.3843 5.9992 22.2024 5.9992 24.2344C5.9992 27.8898 8.92989 30.853 12.545 30.853H27.6617C31.2769 30.853 34.2076 27.8898 34.2076 24.2344C34.2076 22.2024 33.3019 20.3843 31.8765 19.1702C31.7252 19.0413 31.6803 18.8246 31.7679 18.6462C32.201 17.7642 32.4445 16.7701 32.4445 15.7185C32.4445 12.2998 29.8707 9.48885 26.5754 9.15878Z" fill="url(#paint39_radial_55_477)" fill-opacity="0.5"/>
<path d="M26.5754 9.15878C26.4593 9.14715 26.37 9.0489 26.37 8.93223C26.37 5.42734 23.56 2.58606 20.0936 2.58606C16.6272 2.58606 13.8171 5.42734 13.8171 8.93223C13.8171 9.04973 13.7274 9.14881 13.6106 9.1609C10.3254 9.50073 7.76229 12.307 7.76229 15.7185C7.76229 16.7701 8.00585 17.7641 8.43898 18.6462C8.52657 18.8246 8.48161 19.0413 8.33031 19.1702C6.90485 20.3843 5.9992 22.2024 5.9992 24.2344C5.9992 27.8898 8.92989 30.853 12.545 30.853H27.6617C31.2769 30.853 34.2076 27.8898 34.2076 24.2344C34.2076 22.2024 33.3019 20.3843 31.8765 19.1702C31.7252 19.0413 31.6803 18.8246 31.7679 18.6462C32.201 17.7642 32.4445 16.7701 32.4445 15.7185C32.4445 12.2998 29.8707 9.48885 26.5754 9.15878Z" fill="url(#paint40_radial_55_477)" fill-opacity="0.3"/>
<path d="M26.5754 9.15878C26.4593 9.14715 26.37 9.0489 26.37 8.93223C26.37 5.42734 23.56 2.58606 20.0936 2.58606C16.6272 2.58606 13.8171 5.42734 13.8171 8.93223C13.8171 9.04973 13.7274 9.14881 13.6106 9.1609C10.3254 9.50073 7.76229 12.307 7.76229 15.7185C7.76229 16.7701 8.00585 17.7641 8.43898 18.6462C8.52657 18.8246 8.48161 19.0413 8.33031 19.1702C6.90485 20.3843 5.9992 22.2024 5.9992 24.2344C5.9992 27.8898 8.92989 30.853 12.545 30.853H27.6617C31.2769 30.853 34.2076 27.8898 34.2076 24.2344C34.2076 22.2024 33.3019 20.3843 31.8765 19.1702C31.7252 19.0413 31.6803 18.8246 31.7679 18.6462C32.201 17.7642 32.4445 16.7701 32.4445 15.7185C32.4445 12.2998 29.8707 9.48885 26.5754 9.15878Z" fill="url(#paint41_radial_55_477)" fill-opacity="0.3"/>
<path d="M26.5754 9.15878C26.4593 9.14715 26.37 9.0489 26.37 8.93223C26.37 5.42734 23.56 2.58606 20.0936 2.58606C16.6272 2.58606 13.8171 5.42734 13.8171 8.93223C13.8171 9.04973 13.7274 9.14881 13.6106 9.1609C10.3254 9.50073 7.76229 12.307 7.76229 15.7185C7.76229 16.7701 8.00585 17.7641 8.43898 18.6462C8.52657 18.8246 8.48161 19.0413 8.33031 19.1702C6.90485 20.3843 5.9992 22.2024 5.9992 24.2344C5.9992 27.8898 8.92989 30.853 12.545 30.853H27.6617C31.2769 30.853 34.2076 27.8898 34.2076 24.2344C34.2076 22.2024 33.3019 20.3843 31.8765 19.1702C31.7252 19.0413 31.6803 18.8246 31.7679 18.6462C32.201 17.7642 32.4445 16.7701 32.4445 15.7185C32.4445 12.2998 29.8707 9.48885 26.5754 9.15878Z" fill="url(#paint42_radial_55_477)" fill-opacity="0.5"/>
<path d="M26.5754 9.15878C26.4593 9.14715 26.37 9.0489 26.37 8.93223C26.37 5.42734 23.56 2.58606 20.0936 2.58606C16.6272 2.58606 13.8171 5.42734 13.8171 8.93223C13.8171 9.04973 13.7274 9.14881 13.6106 9.1609C10.3254 9.50073 7.76229 12.307 7.76229 15.7185C7.76229 16.7701 8.00585 17.7641 8.43898 18.6462C8.52657 18.8246 8.48161 19.0413 8.33031 19.1702C6.90485 20.3843 5.9992 22.2024 5.9992 24.2344C5.9992 27.8898 8.92989 30.853 12.545 30.853H27.6617C31.2769 30.853 34.2076 27.8898 34.2076 24.2344C34.2076 22.2024 33.3019 20.3843 31.8765 19.1702C31.7252 19.0413 31.6803 18.8246 31.7679 18.6462C32.201 17.7642 32.4445 16.7701 32.4445 15.7185C32.4445 12.2998 29.8707 9.48885 26.5754 9.15878Z" fill="url(#paint43_radial_55_477)"/>
<path d="M26.5754 9.15878C26.4593 9.14715 26.37 9.0489 26.37 8.93223C26.37 5.42734 23.56 2.58606 20.0936 2.58606C16.6272 2.58606 13.8171 5.42734 13.8171 8.93223C13.8171 9.04973 13.7274 9.14881 13.6106 9.1609C10.3254 9.50073 7.76229 12.307 7.76229 15.7185C7.76229 16.7701 8.00585 17.7641 8.43898 18.6462C8.52657 18.8246 8.48161 19.0413 8.33031 19.1702C6.90485 20.3843 5.9992 22.2024 5.9992 24.2344C5.9992 27.8898 8.92989 30.853 12.545 30.853H27.6617C31.2769 30.853 34.2076 27.8898 34.2076 24.2344C34.2076 22.2024 33.3019 20.3843 31.8765 19.1702C31.7252 19.0413 31.6803 18.8246 31.7679 18.6462C32.201 17.7642 32.4445 16.7701 32.4445 15.7185C32.4445 12.2998 29.8707 9.48885 26.5754 9.15878Z" fill="url(#paint44_radial_55_477)"/>
<path d="M26.5754 9.15878C26.4593 9.14715 26.37 9.0489 26.37 8.93223C26.37 5.42734 23.56 2.58606 20.0936 2.58606C16.6272 2.58606 13.8171 5.42734 13.8171 8.93223C13.8171 9.04973 13.7274 9.14881 13.6106 9.1609C10.3254 9.50073 7.76229 12.307 7.76229 15.7185C7.76229 16.7701 8.00585 17.7641 8.43898 18.6462C8.52657 18.8246 8.48161 19.0413 8.33031 19.1702C6.90485 20.3843 5.9992 22.2024 5.9992 24.2344C5.9992 27.8898 8.92989 30.853 12.545 30.853H27.6617C31.2769 30.853 34.2076 27.8898 34.2076 24.2344C34.2076 22.2024 33.3019 20.3843 31.8765 19.1702C31.7252 19.0413 31.6803 18.8246 31.7679 18.6462C32.201 17.7642 32.4445 16.7701 32.4445 15.7185C32.4445 12.2998 29.8707 9.48885 26.5754 9.15878Z" fill="url(#paint45_radial_55_477)"/>
<path d="M26.5754 9.15878C26.4593 9.14715 26.37 9.0489 26.37 8.93223C26.37 5.42734 23.56 2.58606 20.0936 2.58606C16.6272 2.58606 13.8171 5.42734 13.8171 8.93223C13.8171 9.04973 13.7274 9.14881 13.6106 9.1609C10.3254 9.50073 7.76229 12.307 7.76229 15.7185C7.76229 16.7701 8.00585 17.7641 8.43898 18.6462C8.52657 18.8246 8.48161 19.0413 8.33031 19.1702C6.90485 20.3843 5.9992 22.2024 5.9992 24.2344C5.9992 27.8898 8.92989 30.853 12.545 30.853H27.6617C31.2769 30.853 34.2076 27.8898 34.2076 24.2344C34.2076 22.2024 33.3019 20.3843 31.8765 19.1702C31.7252 19.0413 31.6803 18.8246 31.7679 18.6462C32.201 17.7642 32.4445 16.7701 32.4445 15.7185C32.4445 12.2998 29.8707 9.48885 26.5754 9.15878Z" fill="url(#paint46_radial_55_477)"/>
<path d="M26.5754 9.15878C26.4593 9.14715 26.37 9.0489 26.37 8.93223C26.37 5.42734 23.56 2.58606 20.0936 2.58606C16.6272 2.58606 13.8171 5.42734 13.8171 8.93223C13.8171 9.04973 13.7274 9.14881 13.6106 9.1609C10.3254 9.50073 7.76229 12.307 7.76229 15.7185C7.76229 16.7701 8.00585 17.7641 8.43898 18.6462C8.52657 18.8246 8.48161 19.0413 8.33031 19.1702C6.90485 20.3843 5.9992 22.2024 5.9992 24.2344C5.9992 27.8898 8.92989 30.853 12.545 30.853H27.6617C31.2769 30.853 34.2076 27.8898 34.2076 24.2344C34.2076 22.2024 33.3019 20.3843 31.8765 19.1702C31.7252 19.0413 31.6803 18.8246 31.7679 18.6462C32.201 17.7642 32.4445 16.7701 32.4445 15.7185C32.4445 12.2998 29.8707 9.48885 26.5754 9.15878Z" fill="url(#paint47_radial_55_477)" fill-opacity="0.75"/>
<defs>
<linearGradient id="paint0_linear_55_477" x1="16.5328" y1="35.3781" x2="19.5471" y2="35.3781" gradientUnits="userSpaceOnUse">
<stop stop-color="#908181"/>
<stop offset="1" stop-color="#908181" stop-opacity="0"/>
</linearGradient>
<linearGradient id="paint1_linear_55_477" x1="17.2756" y1="34.6653" x2="18.1372" y2="34.6653" gradientUnits="userSpaceOnUse">
<stop stop-color="#5B363A"/>
<stop offset="1" stop-color="#5B363A" stop-opacity="0"/>
</linearGradient>
<linearGradient id="paint2_linear_55_477" x1="20.1034" y1="37.6659" x2="20.1034" y2="37.1675" gradientUnits="userSpaceOnUse">
<stop stop-color="#6A2F5B"/>
<stop offset="1" stop-color="#6A2F5B" stop-opacity="0"/>
</linearGradient>
<linearGradient id="paint3_linear_55_477" x1="23.5689" y1="33.385" x2="22.4678" y2="33.385" gradientUnits="userSpaceOnUse">
<stop stop-color="#6D5C5C"/>
<stop offset="1" stop-color="#6D5C5C" stop-opacity="0"/>
</linearGradient>
<radialGradient id="paint4_radial_55_477" cx="0" cy="0" r="1" gradientUnits="userSpaceOnUse" gradientTransform="translate(22.0429 30.8459) rotate(89.5894) scale(2.69538 0.985402)">
<stop offset="0.406931" stop-color="#4D2D31"/>
<stop offset="1" stop-color="#4D2D31" stop-opacity="0"/>
</radialGradient>
<linearGradient id="paint5_linear_55_477" x1="22.958" y1="33.9241" x2="19.6274" y2="33.9241" gradientUnits="userSpaceOnUse">
<stop stop-color="#7F5B60" stop-opacity="0"/>
<stop offset="0.380208" stop-color="#7F5B60" stop-opacity="0.75"/>
<stop offset="0.461017" stop-color="#7F5B60" stop-opacity="0.78"/>
<stop offset="0.510417" stop-color="#7F5B60" stop-opacity="0.74"/>
<stop offset="1" stop-color="#7F5B60" stop-opacity="0"/>
</linearGradient>
<linearGradient id="paint6_linear_55_477" x1="21.0593" y1="34.1344" x2="18.9934" y2="34.1344" gradientUnits="userSpaceOnUse">
<stop stop-color="#683B4B" stop-opacity="0"/>
<stop offset="0.414296" stop-color="#683B4B" stop-opacity="0.58"/>
<stop offset="0.743457" stop-color="#683B4B" stop-opacity="0.56"/>
<stop offset="1" stop-color="#683B4B" stop-opacity="0"/>
</linearGradient>
<radialGradient id="paint7_radial_55_477" cx="0" cy="0" r="1" gradientUnits="userSpaceOnUse" gradientTransform="translate(22.0307 30.5962) rotate(101.667) scale(2.59625 8.08547)">
<stop stop-color="#4D2D31"/>
<stop offset="0.60854" stop-color="#4D2D31" stop-opacity="0.254108"/>
<stop offset="1" stop-color="#4D2D31" stop-opacity="0"/>
</radialGradient>
<radialGradient id="paint8_radial_55_477" cx="0" cy="0" r="1" gradientUnits="userSpaceOnUse" gradientTransform="translate(29.8661 19.4786) rotate(180) scale(20.4756 20.8898)">
<stop stop-color="#7CBE4D"/>
<stop offset="1" stop-color="#549756"/>
</radialGradient>
<radialGradient id="paint9_radial_55_477" cx="0" cy="0" r="1" gradientUnits="userSpaceOnUse" gradientTransform="translate(8.92687 29.088) rotate(-24.2374) scale(11.6088 13.0199)">
<stop stop-color="#438154"/>
<stop offset="1" stop-color="#438154" stop-opacity="0"/>
</radialGradient>
<radialGradient id="paint10_radial_55_477" cx="0" cy="0" r="1" gradientUnits="userSpaceOnUse" gradientTransform="translate(6.91795 16.7196) scale(11.1264 8.37066)">
<stop stop-color="#438154"/>
<stop offset="1" stop-color="#438154" stop-opacity="0"/>
</radialGradient>
<radialGradient id="paint11_radial_55_477" cx="0" cy="0" r="1" gradientUnits="userSpaceOnUse" gradientTransform="translate(13.4083 5.72864) rotate(25.8697) scale(8.41544 6.48875)">
<stop stop-color="#438154"/>
<stop offset="1" stop-color="#438154" stop-opacity="0"/>
</radialGradient>
<radialGradient id="paint12_radial_55_477" cx="0" cy="0" r="1" gradientUnits="userSpaceOnUse" gradientTransform="translate(12.6743 9.04895) rotate(159.608) scale(2.8027 1.16854)">
<stop stop-color="#438154"/>
<stop offset="1" stop-color="#438154" stop-opacity="0"/>
</radialGradient>
<radialGradient id="paint13_radial_55_477" cx="0" cy="0" r="1" gradientUnits="userSpaceOnUse" gradientTransform="translate(32.3386 15.1818) rotate(168.853) scale(7.95398 8.35747)">
<stop stop-color="#81CB44"/>
<stop offset="1" stop-color="#81CB44" stop-opacity="0"/>
</radialGradient>
<radialGradient id="paint14_radial_55_477" cx="0" cy="0" r="1" gradientUnits="userSpaceOnUse" gradientTransform="translate(35.6611 24.4786) rotate(-167.467) scale(11.1605 11.7242)">
<stop stop-color="#81CB44"/>
<stop offset="1" stop-color="#81CB44" stop-opacity="0"/>
</radialGradient>
<radialGradient id="paint15_radial_55_477" cx="0" cy="0" r="1" gradientUnits="userSpaceOnUse" gradientTransform="translate(28.7844 4.55677) rotate(155.773) scale(9.51935 10.1029)">
<stop stop-color="#81CB44"/>
<stop offset="1" stop-color="#81CB44" stop-opacity="0"/>
</radialGradient>
<radialGradient id="paint16_radial_55_477" cx="0" cy="0" r="1" gradientUnits="userSpaceOnUse" gradientTransform="translate(6.27324 25.8709) scale(5.91491 17.9911)">
<stop stop-color="#9EB9A3"/>
<stop offset="0.366842" stop-color="#9EB9A3" stop-opacity="0.705779"/>
<stop offset="1" stop-color="#9EB9A3" stop-opacity="0"/>
</radialGradient>
<radialGradient id="paint17_radial_55_477" cx="0" cy="0" r="1" gradientUnits="userSpaceOnUse" gradientTransform="translate(7.22515 12.9455) rotate(23.2172) scale(6.47757 19.6356)">
<stop offset="0.0569313" stop-color="#9EB9A3"/>
<stop offset="0.366842" stop-color="#9EB9A3" stop-opacity="0.81"/>
<stop offset="1" stop-color="#9EB9A3" stop-opacity="0"/>
</radialGradient>
<radialGradient id="paint18_radial_55_477" cx="0" cy="0" r="1" gradientUnits="userSpaceOnUse" gradientTransform="translate(13.6908 3.83571) rotate(45.3165) scale(6.07596 13.5978)">
<stop stop-color="#9EB9A3"/>
<stop offset="0.432932" stop-color="#9EB9A3" stop-opacity="0.78"/>
<stop offset="1" stop-color="#9EB9A3" stop-opacity="0"/>
</radialGradient>
<radialGradient id="paint19_radial_55_477" cx="0" cy="0" r="1" gradientUnits="userSpaceOnUse" gradientTransform="translate(15.4321 9.81211) rotate(102.459) scale(0.715954 4.41401)">
<stop stop-color="#9EB9A3" stop-opacity="0.35"/>
<stop offset="0.240947" stop-color="#9EB9A3" stop-opacity="0.31"/>
<stop offset="0.653001" stop-color="#9EB9A3" stop-opacity="0.0568668"/>
<stop offset="1" stop-color="#9EB9A3" stop-opacity="0"/>
</radialGradient>
<radialGradient id="paint20_radial_55_477" cx="0" cy="0" r="1" gradientUnits="userSpaceOnUse" gradientTransform="translate(14.3425 9.3848) rotate(109.359) scale(0.825934 2.74613)">
<stop stop-color="#9EB9A3" stop-opacity="0.35"/>
<stop offset="0.307292" stop-color="#9EB9A3" stop-opacity="0.31"/>
<stop offset="0.661458" stop-color="#9EB9A3" stop-opacity="0.0568668"/>
<stop offset="1" stop-color="#9EB9A3" stop-opacity="0"/>
</radialGradient>
<radialGradient id="paint21_radial_55_477" cx="0" cy="0" r="1" gradientUnits="userSpaceOnUse" gradientTransform="translate(12.0153 24.304) rotate(33.5847) scale(5.43175 5.50455)">
<stop stop-color="#549756"/>
<stop offset="0.674008" stop-color="#549756" stop-opacity="0.784271"/>
<stop offset="1" stop-color="#549756" stop-opacity="0"/>
</radialGradient>
<radialGradient id="paint22_radial_55_477" cx="0" cy="0" r="1" gradientUnits="userSpaceOnUse" gradientTransform="translate(18.0544 7.34544) rotate(10.4946) scale(2.83685 3.44747)">
<stop stop-color="#438154" stop-opacity="0.79"/>
<stop offset="0.426284" stop-color="#438154" stop-opacity="0.54"/>
<stop offset="0.72859" stop-color="#438154" stop-opacity="0.187798"/>
<stop offset="1" stop-color="#438154" stop-opacity="0"/>
</radialGradient>
<radialGradient id="paint23_radial_55_477" cx="0" cy="0" r="1" gradientUnits="userSpaceOnUse" gradientTransform="translate(11.837 13.9373) rotate(63.6874) scale(2.36682 2.66457)">
<stop stop-color="#438154" stop-opacity="0.79"/>
<stop offset="0.426284" stop-color="#438154" stop-opacity="0.54"/>
<stop offset="0.72859" stop-color="#438154" stop-opacity="0.187798"/>
<stop offset="1" stop-color="#438154" stop-opacity="0"/>
</radialGradient>
<radialGradient id="paint24_radial_55_477" cx="0" cy="0" r="1" gradientUnits="userSpaceOnUse" gradientTransform="translate(11.5211 24.5673) rotate(-10.9013) scale(3.23533 3.70455)">
<stop stop-color="#438154" stop-opacity="0.79"/>
<stop offset="0.442708" stop-color="#438154" stop-opacity="0.54"/>
<stop offset="0.869792" stop-color="#438154" stop-opacity="0.187798"/>
<stop offset="1" stop-color="#438154" stop-opacity="0"/>
</radialGradient>
<radialGradient id="paint25_radial_55_477" cx="0" cy="0" r="1" gradientUnits="userSpaceOnUse" gradientTransform="translate(19.2152 4.63843) rotate(68.416) scale(2.21298 2.95703)">
<stop stop-color="#438154" stop-opacity="0.79"/>
<stop offset="0.442708" stop-color="#438154" stop-opacity="0.54"/>
<stop offset="0.869792" stop-color="#438154" stop-opacity="0.187798"/>
<stop offset="1" stop-color="#438154" stop-opacity="0"/>
</radialGradient>
<radialGradient id="paint26_radial_55_477" cx="0" cy="0" r="1" gradientUnits="userSpaceOnUse" gradientTransform="translate(13.5452 15.4691) rotate(-26.0181) scale(5.50606 5.94017)">
<stop stop-color="#549756"/>
<stop offset="0.673738" stop-color="#549756" stop-opacity="0.784271"/>
<stop offset="1" stop-color="#549756" stop-opacity="0"/>
</radialGradient>
<radialGradient id="paint27_radial_55_477" cx="0" cy="0" r="1" gradientUnits="userSpaceOnUse" gradientTransform="translate(10.9684 23.9967) rotate(-7.07278) scale(4.82413 4.86561)">
<stop stop-color="#438154" stop-opacity="0.74"/>
<stop offset="0.348958" stop-color="#438154" stop-opacity="0.6"/>
<stop offset="0.592244" stop-color="#438154" stop-opacity="0.41"/>
<stop offset="1" stop-color="#438154" stop-opacity="0"/>
</radialGradient>
<radialGradient id="paint28_radial_55_477" cx="0" cy="0" r="1" gradientUnits="userSpaceOnUse" gradientTransform="translate(12.9866 14.9455) rotate(45.3165) scale(4.59476 4.58458)">
<stop stop-color="#438154" stop-opacity="0.74"/>
<stop offset="0.348958" stop-color="#438154" stop-opacity="0.6"/>
<stop offset="0.534819" stop-color="#438154" stop-opacity="0.41"/>
<stop offset="0.798926" stop-color="#438154" stop-opacity="0.168153"/>
<stop offset="1" stop-color="#438154" stop-opacity="0"/>
</radialGradient>
<radialGradient id="paint29_radial_55_477" cx="0" cy="0" r="1" gradientUnits="userSpaceOnUse" gradientTransform="translate(10.6267 33.6974) rotate(-6.50352) scale(15.8645 8.46357)">
<stop stop-color="#5A6F6C"/>
<stop offset="1" stop-color="#5A6F6C" stop-opacity="0"/>
</radialGradient>
<linearGradient id="paint30_linear_55_477" x1="14.7974" y1="31.6321" x2="14.9578" y2="29.1995" gradientUnits="userSpaceOnUse">
<stop stop-color="#7A7397"/>
<stop offset="1" stop-color="#7A7397" stop-opacity="0"/>
</linearGradient>
<radialGradient id="paint31_radial_55_477" cx="0" cy="0" r="1" gradientUnits="userSpaceOnUse" gradientTransform="translate(8.29449 18.8834) rotate(4.69044) scale(2.93448 2.64857)">
<stop stop-color="#9EB9A3" stop-opacity="0.58"/>
<stop offset="0.410691" stop-color="#9EB9A3" stop-opacity="0.31"/>
<stop offset="0.676901" stop-color="#9EB9A3" stop-opacity="0.0568668"/>
<stop offset="1" stop-color="#9EB9A3" stop-opacity="0"/>
</radialGradient>
<radialGradient id="paint32_radial_55_477" cx="0" cy="0" r="1" gradientUnits="userSpaceOnUse" gradientTransform="translate(30.0211 23.5607) rotate(134.683) scale(4.635 4.6765)">
<stop stop-color="#A0E271" stop-opacity="0.8"/>
<stop offset="0.21875" stop-color="#A0E271" stop-opacity="0.66"/>
<stop offset="0.531357" stop-color="#A0E271" stop-opacity="0.303417"/>
<stop offset="0.755769" stop-color="#A0E271" stop-opacity="0.12"/>
<stop offset="1" stop-color="#A0E271" stop-opacity="0"/>
</radialGradient>
<radialGradient id="paint33_radial_55_477" cx="0" cy="0" r="1" gradientUnits="userSpaceOnUse" gradientTransform="translate(28.3295 14.0027) rotate(134.683) scale(4.21926 4.25704)">
<stop stop-color="#A0E271" stop-opacity="0.8"/>
<stop offset="0.21875" stop-color="#A0E271" stop-opacity="0.706987"/>
<stop offset="0.571322" stop-color="#A0E271" stop-opacity="0.303417"/>
<stop offset="0.780078" stop-color="#A0E271" stop-opacity="0.12"/>
<stop offset="1" stop-color="#A0E271" stop-opacity="0"/>
</radialGradient>
<radialGradient id="paint34_radial_55_477" cx="0" cy="0" r="1" gradientUnits="userSpaceOnUse" gradientTransform="translate(22.7236 7.22688) rotate(143.031) scale(3.37279 3.4138)">
<stop stop-color="#A0E271" stop-opacity="0.56"/>
<stop offset="0.21875" stop-color="#A0E271" stop-opacity="0.51"/>
<stop offset="0.5625" stop-color="#A0E271" stop-opacity="0.28"/>
<stop offset="0.75" stop-color="#A0E271" stop-opacity="0.12"/>
<stop offset="1" stop-color="#A0E271" stop-opacity="0"/>
</radialGradient>
<radialGradient id="paint35_radial_55_477" cx="0" cy="0" r="1" gradientUnits="userSpaceOnUse" gradientTransform="translate(28.85 19.0361) rotate(84.3398) scale(0.840842 6.26315)">
<stop stop-color="#9DDB71" stop-opacity="0.85"/>
<stop offset="0.561488" stop-color="#9DDB71" stop-opacity="0.291667"/>
<stop offset="0.765625" stop-color="#9DDB71" stop-opacity="0.107391"/>
<stop offset="1" stop-color="#9DDB71" stop-opacity="0"/>
</radialGradient>
<radialGradient id="paint36_radial_55_477" cx="0" cy="0" r="1" gradientUnits="userSpaceOnUse" gradientTransform="translate(30.16 18.9516) rotate(82.2319) scale(0.669211 2.20688)">
<stop stop-color="#9DDB71" stop-opacity="0.87"/>
<stop offset="0.66814" stop-color="#9DDB71" stop-opacity="0.291667"/>
<stop offset="1" stop-color="#9DDB71" stop-opacity="0"/>
</radialGradient>
<radialGradient id="paint37_radial_55_477" cx="0" cy="0" r="1" gradientUnits="userSpaceOnUse" gradientTransform="translate(25.7922 19.0682) rotate(87.977) scale(0.814859 4.95712)">
<stop stop-color="#9DDB71" stop-opacity="0.8"/>
<stop offset="0.437065" stop-color="#9DDB71" stop-opacity="0.291667"/>
<stop offset="0.6875" stop-color="#9DDB71" stop-opacity="0.086353"/>
<stop offset="1" stop-color="#9DDB71" stop-opacity="0"/>
</radialGradient>
<radialGradient id="paint38_radial_55_477" cx="0" cy="0" r="1" gradientUnits="userSpaceOnUse" gradientTransform="translate(22.3595 19.3485) rotate(89.1894) scale(1.10374 9.1824)">
<stop stop-color="#9DDB71" stop-opacity="0.67"/>
<stop offset="0.404562" stop-color="#9DDB71" stop-opacity="0.291667"/>
<stop offset="0.653893" stop-color="#9DDB71" stop-opacity="0.086353"/>
<stop offset="1" stop-color="#9DDB71" stop-opacity="0"/>
</radialGradient>
<radialGradient id="paint39_radial_55_477" cx="0" cy="0" r="1" gradientUnits="userSpaceOnUse" gradientTransform="translate(24.165 10.0823) rotate(73.5242) scale(0.778933 2.57575)">
<stop stop-color="#9DDB71" stop-opacity="0.85"/>
<stop offset="0.404562" stop-color="#9DDB71" stop-opacity="0.46"/>
<stop offset="0.728639" stop-color="#9DDB71" stop-opacity="0.086353"/>
<stop offset="1" stop-color="#9DDB71" stop-opacity="0"/>
</radialGradient>
<radialGradient id="paint40_radial_55_477" cx="0" cy="0" r="1" gradientUnits="userSpaceOnUse" gradientTransform="translate(22.7503 10.3818) rotate(81.6205) scale(0.607292 2.52621)">
<stop stop-color="#9DDB71" stop-opacity="0.85"/>
<stop offset="0.368282" stop-color="#9DDB71" stop-opacity="0.46"/>
<stop offset="0.651385" stop-color="#9DDB71" stop-opacity="0.086353"/>
<stop offset="1" stop-color="#9DDB71" stop-opacity="0"/>
</radialGradient>
<radialGradient id="paint41_radial_55_477" cx="0" cy="0" r="1" gradientUnits="userSpaceOnUse" gradientTransform="translate(21.3623 10.6806) rotate(88.3015) scale(0.549456 2.69152)">
<stop stop-color="#9DDB71" stop-opacity="0.85"/>
<stop offset="0.368282" stop-color="#9DDB71" stop-opacity="0.46"/>
<stop offset="0.701754" stop-color="#9DDB71" stop-opacity="0.086353"/>
<stop offset="1" stop-color="#9DDB71" stop-opacity="0"/>
</radialGradient>
<radialGradient id="paint42_radial_55_477" cx="0" cy="0" r="1" gradientUnits="userSpaceOnUse" gradientTransform="translate(25.3412 9.59599) rotate(69.3678) scale(0.724857 1.50169)">
<stop stop-color="#9DDB71" stop-opacity="0.85"/>
<stop offset="0.404562" stop-color="#9DDB71" stop-opacity="0.46"/>
<stop offset="0.703317" stop-color="#9DDB71" stop-opacity="0.086353"/>
<stop offset="1" stop-color="#9DDB71" stop-opacity="0"/>
</radialGradient>
<radialGradient id="paint43_radial_55_477" cx="0" cy="0" r="1" gradientUnits="userSpaceOnUse" gradientTransform="translate(31.77 18.9093) rotate(174.574) scale(1.52617 1.94351)">
<stop offset="0.34375" stop-color="#81CB44"/>
<stop offset="0.484375" stop-color="#81CB44" stop-opacity="0.85"/>
<stop offset="0.783397" stop-color="#81CB44" stop-opacity="0.380156"/>
<stop offset="1" stop-color="#81CB44" stop-opacity="0"/>
</radialGradient>
<radialGradient id="paint44_radial_55_477" cx="0" cy="0" r="1" gradientUnits="userSpaceOnUse" gradientTransform="translate(17.1997 23.9339) rotate(0.163096) scale(7.48701 7.56947)">
<stop stop-color="#81CB44" stop-opacity="0.22"/>
<stop offset="0.453125" stop-color="#81CB44" stop-opacity="0.13"/>
<stop offset="0.760417" stop-color="#81CB44" stop-opacity="0.0606667"/>
<stop offset="1" stop-color="#81CB44" stop-opacity="0"/>
</radialGradient>
<radialGradient id="paint45_radial_55_477" cx="0" cy="0" r="1" gradientUnits="userSpaceOnUse" gradientTransform="translate(20.3067 15.7) rotate(-180) scale(8.07429 5.03984)">
<stop stop-color="#81CB44" stop-opacity="0.38"/>
<stop offset="0.245477" stop-color="#81CB44" stop-opacity="0.21"/>
<stop offset="0.548023" stop-color="#81CB44" stop-opacity="0.142984"/>
<stop offset="0.836158" stop-color="#81CB44" stop-opacity="0.0606667"/>
<stop offset="1" stop-color="#81CB44" stop-opacity="0"/>
</radialGradient>
<radialGradient id="paint46_radial_55_477" cx="0" cy="0" r="1" gradientUnits="userSpaceOnUse" gradientTransform="translate(20.7784 6.977) rotate(180) scale(3.90738 4.99526)">
<stop stop-color="#81CB44" stop-opacity="0.29"/>
<stop offset="0.557215" stop-color="#81CB44" stop-opacity="0.19"/>
<stop offset="0.7707" stop-color="#81CB44" stop-opacity="0.09"/>
<stop offset="1" stop-color="#81CB44" stop-opacity="0"/>
</radialGradient>
<radialGradient id="paint47_radial_55_477" cx="0" cy="0" r="1" gradientUnits="userSpaceOnUse" gradientTransform="translate(16.9943 17.6697) scale(9.62445 3.8402)">
<stop stop-color="#5B8F67"/>
<stop offset="0.83377" stop-color="#5B8F67" stop-opacity="0"/>
</radialGradient>
</defs>
</svg>
