<svg width="40" height="40" viewBox="0 0 40 40" fill="none" xmlns="http://www.w3.org/2000/svg">
<path fill-rule="evenodd" clip-rule="evenodd" d="M21.3988 28.7981C21.9747 31.3432 23.6895 33.5938 26.8139 35.4025C27.3454 35.6783 27.5552 36.3376 27.2824 36.875C27.0096 37.4124 26.3576 37.6245 25.8261 37.3487C22.0758 35.4025 19.9986 32.4185 19.2899 29.2859C18.7605 26.9462 18.8142 24.4114 18.8634 22.089C18.8773 21.4346 18.8908 20.7971 18.8908 20.1855H21.0542C21.0542 20.9052 21.0398 21.6143 21.0256 22.3129C20.9792 24.5868 20.9352 26.7489 21.3988 28.7981Z" fill="url(#paint0_radial_69_3)"/>
<path fill-rule="evenodd" clip-rule="evenodd" d="M21.3988 28.7981C21.9747 31.3432 23.6895 33.5938 26.8139 35.4025C27.3454 35.6783 27.5552 36.3376 27.2824 36.875C27.0096 37.4124 26.3576 37.6245 25.8261 37.3487C22.0758 35.4025 19.9986 32.4185 19.2899 29.2859C18.7605 26.9462 18.8142 24.4114 18.8634 22.089C18.8773 21.4346 18.8908 20.7971 18.8908 20.1855H21.0542C21.0542 20.9052 21.0398 21.6143 21.0256 22.3129C20.9792 24.5868 20.9352 26.7489 21.3988 28.7981Z" fill="url(#paint1_linear_69_3)"/>
<path fill-rule="evenodd" clip-rule="evenodd" d="M21.3988 28.7981C21.9747 31.3432 23.6895 33.5938 26.8139 35.4025C27.3454 35.6783 27.5552 36.3376 27.2824 36.875C27.0096 37.4124 26.3576 37.6245 25.8261 37.3487C22.0758 35.4025 19.9986 32.4185 19.2899 29.2859C18.7605 26.9462 18.8142 24.4114 18.8634 22.089C18.8773 21.4346 18.8908 20.7971 18.8908 20.1855H21.0542C21.0542 20.9052 21.0398 21.6143 21.0256 22.3129C20.9792 24.5868 20.9352 26.7489 21.3988 28.7981Z" fill="url(#paint2_radial_69_3)"/>
<path fill-rule="evenodd" clip-rule="evenodd" d="M21.3988 28.7981C21.9747 31.3432 23.6895 33.5938 26.8139 35.4025C27.3454 35.6783 27.5552 36.3376 27.2824 36.875C27.0096 37.4124 26.3576 37.6245 25.8261 37.3487C22.0758 35.4025 19.9986 32.4185 19.2899 29.2859C18.7605 26.9462 18.8142 24.4114 18.8634 22.089C18.8773 21.4346 18.8908 20.7971 18.8908 20.1855H21.0542C21.0542 20.9052 21.0398 21.6143 21.0256 22.3129C20.9792 24.5868 20.9352 26.7489 21.3988 28.7981Z" fill="url(#paint3_radial_69_3)"/>
<path d="M22.43 28.9635C19.4588 26.4072 20 19.9718 20 16.1631C25.0223 16.1631 28.3636 15.8785 31.6088 17.9488C35.5195 20.4437 32.9997 25.8199 28.9621 25.3707C29.5609 28.8472 25.3278 31.4565 22.43 28.9635Z" fill="url(#paint4_radial_69_3)"/>
<path d="M22.43 28.9635C19.4588 26.4072 20 19.9718 20 16.1631C25.0223 16.1631 28.3636 15.8785 31.6088 17.9488C35.5195 20.4437 32.9997 25.8199 28.9621 25.3707C29.5609 28.8472 25.3278 31.4565 22.43 28.9635Z" fill="url(#paint5_radial_69_3)"/>
<path d="M22.43 28.9635C19.4588 26.4072 20 19.9718 20 16.1631C25.0223 16.1631 28.3636 15.8785 31.6088 17.9488C35.5195 20.4437 32.9997 25.8199 28.9621 25.3707C29.5609 28.8472 25.3278 31.4565 22.43 28.9635Z" fill="url(#paint6_radial_69_3)"/>
<path d="M31.609 17.9492C35.5197 20.4441 32.9999 25.8203 28.9623 25.3711L20.0002 16.1636C25.0225 16.1636 28.3638 15.8789 31.609 17.9492Z" fill="url(#paint7_radial_69_3)"/>
<path d="M31.609 17.9492C35.5197 20.4441 32.9999 25.8203 28.9623 25.3711L20.0002 16.1636C25.0225 16.1636 28.3638 15.8789 31.609 17.9492Z" fill="url(#paint8_radial_69_3)"/>
<path d="M31.609 17.9492C35.5197 20.4441 32.9999 25.8203 28.9623 25.3711L20.0002 16.1636C25.0225 16.1636 28.3638 15.8789 31.609 17.9492Z" fill="url(#paint9_radial_69_3)"/>
<path d="M31.609 17.9492C35.5197 20.4441 32.9999 25.8203 28.9623 25.3711L20.0002 16.1636C25.0225 16.1636 28.3638 15.8789 31.609 17.9492Z" fill="url(#paint10_radial_69_3)"/>
<path d="M22.5112 3.53432C19.4205 6.15154 20 12.3925 20 16.2011C25.0223 16.2011 28.3834 16.62 31.6286 14.5497C35.5393 12.0548 32.8842 6.6786 28.9035 7.15818C29.5024 3.68164 25.2959 1.17616 22.5112 3.53432Z" fill="url(#paint11_radial_69_3)"/>
<path d="M22.5112 3.53432C19.4205 6.15154 20 12.3925 20 16.2011C25.0223 16.2011 28.3834 16.62 31.6286 14.5497C35.5393 12.0548 32.8842 6.6786 28.9035 7.15818C29.5024 3.68164 25.2959 1.17616 22.5112 3.53432Z" fill="url(#paint12_radial_69_3)"/>
<path d="M22.5112 3.53432C19.4205 6.15154 20 12.3925 20 16.2011C25.0223 16.2011 28.3834 16.62 31.6286 14.5497C35.5393 12.0548 32.8842 6.6786 28.9035 7.15818C29.5024 3.68164 25.2959 1.17616 22.5112 3.53432Z" fill="url(#paint13_radial_69_3)"/>
<path d="M22.5112 3.53432C19.4205 6.15154 20 12.3925 20 16.2011C25.0223 16.2011 28.3834 16.62 31.6286 14.5497C35.5393 12.0548 32.8842 6.6786 28.9035 7.15818C29.5024 3.68164 25.2959 1.17616 22.5112 3.53432Z" fill="url(#paint14_radial_69_3)"/>
<path d="M22.5112 3.53432C19.4205 6.15154 20 12.3925 20 16.2011C25.0223 16.2011 28.3834 16.62 31.6286 14.5497C35.5393 12.0548 32.8842 6.6786 28.9035 7.15818C29.5024 3.68164 25.2959 1.17616 22.5112 3.53432Z" fill="url(#paint15_radial_69_3)"/>
<path d="M22.5101 3.5354C19.4194 6.15262 19.9989 12.3935 19.9989 16.2022L28.9024 7.15926C29.5012 3.68272 25.2948 1.17724 22.5101 3.5354Z" fill="#48D386"/>
<path d="M22.5101 3.5354C19.4194 6.15262 19.9989 12.3935 19.9989 16.2022L28.9024 7.15926C29.5012 3.68272 25.2948 1.17724 22.5101 3.5354Z" fill="url(#paint16_radial_69_3)"/>
<path d="M22.5101 3.5354C19.4194 6.15262 19.9989 12.3935 19.9989 16.2022L28.9024 7.15926C29.5012 3.68272 25.2948 1.17724 22.5101 3.5354Z" fill="url(#paint17_radial_69_3)"/>
<path d="M22.5101 3.5354C19.4194 6.15262 19.9989 12.3935 19.9989 16.2022L28.9024 7.15926C29.5012 3.68272 25.2948 1.17724 22.5101 3.5354Z" fill="url(#paint18_radial_69_3)"/>
<path d="M22.5101 3.5354C19.4194 6.15262 19.9989 12.3935 19.9989 16.2022L28.9024 7.15926C29.5012 3.68272 25.2948 1.17724 22.5101 3.5354Z" fill="url(#paint19_radial_69_3)"/>
<path d="M17.3343 29.1019C20.7949 26.4578 20.0304 19.2962 20.0304 16.1631C15.0081 16.1631 11.5383 15.9564 8.29313 18.0267C4.57796 20.3968 7.15383 25.7613 11.0364 25.3511C10.4376 28.8277 14.4363 31.3162 17.3343 29.1019Z" fill="url(#paint20_radial_69_3)"/>
<path d="M17.3343 29.1019C20.7949 26.4578 20.0304 19.2962 20.0304 16.1631C15.0081 16.1631 11.5383 15.9564 8.29313 18.0267C4.57796 20.3968 7.15383 25.7613 11.0364 25.3511C10.4376 28.8277 14.4363 31.3162 17.3343 29.1019Z" fill="url(#paint21_radial_69_3)"/>
<path d="M17.3343 29.1019C20.7949 26.4578 20.0304 19.2962 20.0304 16.1631C15.0081 16.1631 11.5383 15.9564 8.29313 18.0267C4.57796 20.3968 7.15383 25.7613 11.0364 25.3511C10.4376 28.8277 14.4363 31.3162 17.3343 29.1019Z" fill="url(#paint22_radial_69_3)"/>
<path d="M17.3343 29.1019C20.7949 26.4578 20.0304 19.2962 20.0304 16.1631C15.0081 16.1631 11.5383 15.9564 8.29313 18.0267C4.57796 20.3968 7.15383 25.7613 11.0364 25.3511C10.4376 28.8277 14.4363 31.3162 17.3343 29.1019Z" fill="url(#paint23_radial_69_3)"/>
<path d="M17.3353 29.1026C20.7958 26.4585 20.0314 19.2969 20.0314 16.1638L11.0374 25.3518C10.4386 28.8283 14.4373 31.3169 17.3353 29.1026Z" fill="url(#paint24_radial_69_3)"/>
<path d="M17.3353 29.1026C20.7958 26.4585 20.0314 19.2969 20.0314 16.1638L11.0374 25.3518C10.4386 28.8283 14.4373 31.3169 17.3353 29.1026Z" fill="url(#paint25_radial_69_3)"/>
<path d="M17.3353 29.1026C20.7958 26.4585 20.0314 19.2969 20.0314 16.1638L11.0374 25.3518C10.4386 28.8283 14.4373 31.3169 17.3353 29.1026Z" fill="url(#paint26_radial_69_3)"/>
<path d="M17.3353 29.1026C20.7958 26.4585 20.0314 19.2969 20.0314 16.1638L11.0374 25.3518C10.4386 28.8283 14.4373 31.3169 17.3353 29.1026Z" fill="url(#paint27_radial_69_3)"/>
<path d="M17.3876 3.50582C20.4356 6.12304 19.9975 12.3925 19.9975 16.2011C15.0445 16.2011 11.5532 16.6406 8.35279 14.5703C4.49603 12.0754 7.05902 6.66014 11.0631 7.15816C10.4725 3.68161 14.6413 1.14766 17.3876 3.50582Z" fill="url(#paint28_linear_69_3)"/>
<path d="M17.3876 3.50582C20.4356 6.12304 19.9975 12.3925 19.9975 16.2011C15.0445 16.2011 11.5532 16.6406 8.35279 14.5703C4.49603 12.0754 7.05902 6.66014 11.0631 7.15816C10.4725 3.68161 14.6413 1.14766 17.3876 3.50582Z" fill="url(#paint29_radial_69_3)"/>
<path d="M17.3876 3.50582C20.4356 6.12304 19.9975 12.3925 19.9975 16.2011C15.0445 16.2011 11.5532 16.6406 8.35279 14.5703C4.49603 12.0754 7.05902 6.66014 11.0631 7.15816C10.4725 3.68161 14.6413 1.14766 17.3876 3.50582Z" fill="url(#paint30_radial_69_3)"/>
<path d="M17.3876 3.50582C20.4356 6.12304 19.9975 12.3925 19.9975 16.2011C15.0445 16.2011 11.5532 16.6406 8.35279 14.5703C4.49603 12.0754 7.05902 6.66014 11.0631 7.15816C10.4725 3.68161 14.6413 1.14766 17.3876 3.50582Z" fill="url(#paint31_radial_69_3)"/>
<path d="M17.3882 3.50584C20.4362 6.12306 19.998 12.3925 19.998 16.2011L11.0636 7.15817C10.473 3.68163 14.6419 1.14768 17.3882 3.50584Z" fill="url(#paint32_radial_69_3)"/>
<path d="M17.3882 3.50584C20.4362 6.12306 19.998 12.3925 19.998 16.2011L11.0636 7.15817C10.473 3.68163 14.6419 1.14768 17.3882 3.50584Z" fill="url(#paint33_radial_69_3)"/>
<path d="M17.3882 3.50584C20.4362 6.12306 19.998 12.3925 19.998 16.2011L11.0636 7.15817C10.473 3.68163 14.6419 1.14768 17.3882 3.50584Z" fill="url(#paint34_radial_69_3)"/>
<path d="M17.3882 3.50584C20.4362 6.12306 19.998 12.3925 19.998 16.2011L11.0636 7.15817C10.473 3.68163 14.6419 1.14768 17.3882 3.50584Z" fill="url(#paint35_radial_69_3)"/>
<path d="M17.3882 3.50584C20.4362 6.12306 19.998 12.3925 19.998 16.2011L11.0636 7.15817C10.473 3.68163 14.6419 1.14768 17.3882 3.50584Z" fill="url(#paint36_radial_69_3)"/>
<path d="M17.3882 3.50584C20.4362 6.12306 19.998 12.3925 19.998 16.2011L11.0636 7.15817C10.473 3.68163 14.6419 1.14768 17.3882 3.50584Z" fill="url(#paint37_radial_69_3)"/>
<path d="M17.3882 3.50584C20.4362 6.12306 19.998 12.3925 19.998 16.2011L11.0636 7.15817C10.473 3.68163 14.6419 1.14768 17.3882 3.50584Z" fill="url(#paint38_linear_69_3)"/>
<defs>
<radialGradient id="paint0_radial_69_3" cx="0" cy="0" r="1" gradientUnits="userSpaceOnUse" gradientTransform="translate(24.0951 29.5703) rotate(61.3164) scale(8.37101 3.82253)">
<stop offset="0.782842" stop-color="#5C9D8C"/>
<stop offset="1" stop-color="#3B646F"/>
</radialGradient>
<linearGradient id="paint1_linear_69_3" x1="19.266" y1="22.5781" x2="23.9069" y2="32.0692" gradientUnits="userSpaceOnUse">
<stop offset="0.146967" stop-color="#144E44"/>
<stop offset="1" stop-color="#144E44" stop-opacity="0"/>
</linearGradient>
<radialGradient id="paint2_radial_69_3" cx="0" cy="0" r="1" gradientUnits="userSpaceOnUse" gradientTransform="translate(27.0313 36.0937) rotate(143.671) scale(1.05499 1.13202)">
<stop stop-color="#6BAC9A"/>
<stop offset="1" stop-color="#6AAC9A" stop-opacity="0"/>
</radialGradient>
<radialGradient id="paint3_radial_69_3" cx="0" cy="0" r="1" gradientUnits="userSpaceOnUse" gradientTransform="translate(21.4294 26.875) rotate(83.3982) scale(3.69638 0.99191)">
<stop offset="0.592714" stop-color="#5A7E72"/>
<stop offset="1" stop-color="#5A7E72" stop-opacity="0"/>
</radialGradient>
<radialGradient id="paint4_radial_69_3" cx="0" cy="0" r="1" gradientUnits="userSpaceOnUse" gradientTransform="translate(29.0786 25.3902) rotate(-140.773) scale(14.6124 9.55224)">
<stop offset="0.120266" stop-color="#45DF95"/>
<stop offset="0.539194" stop-color="#42B785"/>
<stop offset="0.919541" stop-color="#249757"/>
</radialGradient>
<radialGradient id="paint5_radial_69_3" cx="0" cy="0" r="1" gradientUnits="userSpaceOnUse" gradientTransform="translate(25.7948 22.0308) rotate(-133.372) scale(7.20085 1.81323)">
<stop offset="0.401048" stop-color="#69D699"/>
<stop offset="0.909552" stop-color="#69D699" stop-opacity="0"/>
</radialGradient>
<radialGradient id="paint6_radial_69_3" cx="0" cy="0" r="1" gradientUnits="userSpaceOnUse" gradientTransform="translate(26.7618 13.2808) rotate(95.2013) scale(29.418 14.2651)">
<stop offset="0.484495" stop-color="#45B991" stop-opacity="0"/>
<stop offset="0.579844" stop-color="#498C8A"/>
</radialGradient>
<radialGradient id="paint7_radial_69_3" cx="0" cy="0" r="1" gradientUnits="userSpaceOnUse" gradientTransform="translate(34.5647 16.445) rotate(178.399) scale(15.382 16.4519)">
<stop offset="0.307826" stop-color="#55E48C"/>
<stop offset="0.538805" stop-color="#43CD91"/>
<stop offset="0.948317" stop-color="#208C52"/>
</radialGradient>
<radialGradient id="paint8_radial_69_3" cx="0" cy="0" r="1" gradientUnits="userSpaceOnUse" gradientTransform="translate(25.0996 21.2106) rotate(-133.899) scale(6.01741 1.15819)">
<stop offset="0.0742695" stop-color="#3BB07A"/>
<stop offset="1" stop-color="#2CA868" stop-opacity="0"/>
</radialGradient>
<radialGradient id="paint9_radial_69_3" cx="0" cy="0" r="1" gradientUnits="userSpaceOnUse" gradientTransform="translate(32.6717 20.0778) rotate(-159.627) scale(6.28343 4.31697)">
<stop stop-color="#7FFFB0"/>
<stop offset="1" stop-color="#7FFFB0" stop-opacity="0"/>
</radialGradient>
<radialGradient id="paint10_radial_69_3" cx="0" cy="0" r="1" gradientUnits="userSpaceOnUse" gradientTransform="translate(29.6583 25.9372) rotate(77.866) scale(1.83794 9.88878)">
<stop offset="0.245487" stop-color="#50A08F"/>
<stop offset="1" stop-color="#40C18F" stop-opacity="0"/>
</radialGradient>
<radialGradient id="paint11_radial_69_3" cx="0" cy="0" r="1" gradientUnits="userSpaceOnUse" gradientTransform="translate(33.3296 5.81923) rotate(142.677) scale(16.8153 17.0095)">
<stop offset="0.20888" stop-color="#56F091"/>
<stop offset="0.584815" stop-color="#49C489"/>
<stop offset="0.762057" stop-color="#3F9F7D"/>
<stop offset="0.966147" stop-color="#2A8660"/>
</radialGradient>
<radialGradient id="paint12_radial_69_3" cx="0" cy="0" r="1" gradientUnits="userSpaceOnUse" gradientTransform="translate(33.1364 9.42397) rotate(180) scale(7.26305 3.46558)">
<stop offset="0.155556" stop-color="#7FFFB2"/>
<stop offset="1" stop-color="#64EA9E" stop-opacity="0"/>
</radialGradient>
<radialGradient id="paint13_radial_69_3" cx="0" cy="0" r="1" gradientUnits="userSpaceOnUse" gradientTransform="translate(26.0665 9.99892) rotate(134.054) scale(5.00045 0.65912)">
<stop stop-color="#44D785"/>
<stop offset="1" stop-color="#44D785" stop-opacity="0"/>
</radialGradient>
<radialGradient id="paint14_radial_69_3" cx="0" cy="0" r="1" gradientUnits="userSpaceOnUse" gradientTransform="translate(21.7783 14.2567) rotate(134.898) scale(7.33424 0.82449)">
<stop stop-color="#26945A"/>
<stop offset="1" stop-color="#26945A" stop-opacity="0"/>
</radialGradient>
<radialGradient id="paint15_radial_69_3" cx="0" cy="0" r="1" gradientUnits="userSpaceOnUse" gradientTransform="translate(29.6208 6.60048) rotate(101.883) scale(1.87614 5.7893)">
<stop stop-color="#64EB94"/>
<stop offset="1" stop-color="#64EB94" stop-opacity="0"/>
</radialGradient>
<radialGradient id="paint16_radial_69_3" cx="0" cy="0" r="1" gradientUnits="userSpaceOnUse" gradientTransform="translate(28.96 5) rotate(128.003) scale(14.624 15.6619)">
<stop offset="0.116729" stop-color="#56F091"/>
<stop offset="0.536018" stop-color="#49C489"/>
<stop offset="0.810895" stop-color="#399573"/>
<stop offset="1" stop-color="#1D8854"/>
</radialGradient>
<radialGradient id="paint17_radial_69_3" cx="0" cy="0" r="1" gradientUnits="userSpaceOnUse" gradientTransform="translate(28.96 7.34375) rotate(-115.751) scale(7.28607 3.77442)">
<stop offset="0.246003" stop-color="#7FFFB2"/>
<stop offset="0.956884" stop-color="#52E490" stop-opacity="0"/>
</radialGradient>
<radialGradient id="paint18_radial_69_3" cx="0" cy="0" r="1" gradientUnits="userSpaceOnUse" gradientTransform="translate(27.1466 8.82813) rotate(112.556) scale(26.69 17.4639)">
<stop offset="0.233814" stop-color="#509A65" stop-opacity="0"/>
<stop offset="0.517579" stop-color="#2D9654"/>
</radialGradient>
<radialGradient id="paint19_radial_69_3" cx="0" cy="0" r="1" gradientUnits="userSpaceOnUse" gradientTransform="translate(21.3903 15.1953) rotate(-44.9815) scale(9.3943 1.01654)">
<stop offset="0.116765" stop-color="#3F9B7D"/>
<stop offset="1" stop-color="#3F9B7D" stop-opacity="0"/>
</radialGradient>
<radialGradient id="paint20_radial_69_3" cx="0" cy="0" r="1" gradientUnits="userSpaceOnUse" gradientTransform="translate(18.9173 16.1565) rotate(146.703) scale(14.3286 8.20533)">
<stop stop-color="#50CB82"/>
<stop offset="0.5476" stop-color="#3DBF7E"/>
<stop offset="1" stop-color="#399970"/>
</radialGradient>
<radialGradient id="paint21_radial_69_3" cx="0" cy="0" r="1" gradientUnits="userSpaceOnUse" gradientTransform="translate(18.6855 18.3587) rotate(142.464) scale(7.69773 2.50286)">
<stop offset="0.409408" stop-color="#77DC9F"/>
<stop offset="0.865291" stop-color="#4FC985" stop-opacity="0"/>
</radialGradient>
<radialGradient id="paint22_radial_69_3" cx="0" cy="0" r="1" gradientUnits="userSpaceOnUse" gradientTransform="translate(14.204 23.0486) rotate(69.5947) scale(16.9186 23.5872)">
<stop offset="0.306903" stop-color="#1FA45F" stop-opacity="0"/>
<stop offset="0.413746" stop-color="#3DA163"/>
</radialGradient>
<radialGradient id="paint23_radial_69_3" cx="0" cy="0" r="1" gradientUnits="userSpaceOnUse" gradientTransform="translate(10.5725 26.2493) rotate(90) scale(3.69141 9.53034)">
<stop stop-color="#53888A"/>
<stop offset="1" stop-color="#3CA584" stop-opacity="0"/>
</radialGradient>
<radialGradient id="paint24_radial_69_3" cx="0" cy="0" r="1" gradientUnits="userSpaceOnUse" gradientTransform="translate(19.5756 18.6328) rotate(122.013) scale(13.3367 8.20397)">
<stop stop-color="#73D89A"/>
<stop offset="0.473451" stop-color="#48C48D"/>
<stop offset="0.876852" stop-color="#3FAB89"/>
</radialGradient>
<radialGradient id="paint25_radial_69_3" cx="0" cy="0" r="1" gradientUnits="userSpaceOnUse" gradientTransform="translate(19.3051 18.2813) rotate(109.892) scale(13.6254 4.03992)">
<stop offset="0.224292" stop-color="#78DEA0"/>
<stop offset="1" stop-color="#48C792" stop-opacity="0"/>
</radialGradient>
<radialGradient id="paint26_radial_69_3" cx="0" cy="0" r="1" gradientUnits="userSpaceOnUse" gradientTransform="translate(18.2234 17.7734) rotate(134.683) scale(10.6034 1.23202)">
<stop offset="0.184071" stop-color="#2BBF6A"/>
<stop offset="0.995028" stop-color="#2BBF6A" stop-opacity="0"/>
</radialGradient>
<radialGradient id="paint27_radial_69_3" cx="0" cy="0" r="1" gradientUnits="userSpaceOnUse" gradientTransform="translate(15.5408 17.1875) rotate(88.3117) scale(20.2432 13.4088)">
<stop offset="0.54891" stop-color="#498C8A" stop-opacity="0"/>
<stop offset="0.647236" stop-color="#498C8A"/>
</radialGradient>
<linearGradient id="paint28_linear_69_3" x1="13.3111" y1="5.77145" x2="20.2652" y2="16.867" gradientUnits="userSpaceOnUse">
<stop stop-color="#3AC97D"/>
<stop offset="1" stop-color="#3FAD80"/>
</linearGradient>
<radialGradient id="paint29_radial_69_3" cx="0" cy="0" r="1" gradientUnits="userSpaceOnUse" gradientTransform="translate(9.6844 7.81248) rotate(32.3056) scale(15.7694 9.13459)">
<stop stop-color="#41D881"/>
<stop offset="0.754404" stop-color="#3CA07C"/>
<stop offset="0.865637" stop-color="#38A975"/>
</radialGradient>
<radialGradient id="paint30_radial_69_3" cx="0" cy="0" r="1" gradientUnits="userSpaceOnUse" gradientTransform="translate(18.7632 -3.90626) rotate(103.008) scale(21.97 20.7983)">
<stop offset="0.8631" stop-color="#3BA37C" stop-opacity="0"/>
<stop offset="0.96087" stop-color="#2F8567"/>
</radialGradient>
<radialGradient id="paint31_radial_69_3" cx="0" cy="0" r="1" gradientUnits="userSpaceOnUse" gradientTransform="translate(15.4021 11.289) rotate(43.2557) scale(7.63857 1.60067)">
<stop offset="0.272563" stop-color="#77DBA1"/>
<stop offset="1" stop-color="#77DBA1" stop-opacity="0"/>
</radialGradient>
<radialGradient id="paint32_radial_69_3" cx="0" cy="0" r="1" gradientUnits="userSpaceOnUse" gradientTransform="translate(13.9335 2.8125) rotate(67.4887) scale(15.8989 15.799)">
<stop offset="0.0621556" stop-color="#41D881"/>
<stop offset="0.822327" stop-color="#38A975"/>
</radialGradient>
<radialGradient id="paint33_radial_69_3" cx="0" cy="0" r="1" gradientUnits="userSpaceOnUse" gradientTransform="translate(18.4536 9.39453) rotate(59.0076) scale(19.2069 12.7915)">
<stop offset="0.265209" stop-color="#3DCD7F" stop-opacity="0"/>
<stop offset="0.480757" stop-color="#43A266"/>
</radialGradient>
<radialGradient id="paint34_radial_69_3" cx="0" cy="0" r="1" gradientUnits="userSpaceOnUse" gradientTransform="translate(17.2173 4.375) rotate(78.0467) scale(12.4976 3.91431)">
<stop offset="0.120445" stop-color="#74F4A5"/>
<stop offset="1" stop-color="#74F4A5" stop-opacity="0"/>
</radialGradient>
<radialGradient id="paint35_radial_69_3" cx="0" cy="0" r="1" gradientUnits="userSpaceOnUse" gradientTransform="translate(20.0207 10.1562) rotate(82.3334) scale(16.6331 1.18017)">
<stop stop-color="#097832"/>
<stop offset="1" stop-color="#59DA8E" stop-opacity="0"/>
</radialGradient>
<radialGradient id="paint36_radial_69_3" cx="0" cy="0" r="1" gradientUnits="userSpaceOnUse" gradientTransform="translate(20.0207 15.3125) rotate(57.8635) scale(7.65765 5.10191)">
<stop stop-color="#2E9A6A"/>
<stop offset="1" stop-color="#56CA8C" stop-opacity="0"/>
</radialGradient>
<radialGradient id="paint37_radial_69_3" cx="0" cy="0" r="1" gradientUnits="userSpaceOnUse" gradientTransform="translate(15.5139 12.2656) rotate(45.6829) scale(8.18938 1.81121)">
<stop offset="0.374988" stop-color="#41AC81"/>
<stop offset="1" stop-color="#41AC81" stop-opacity="0"/>
</radialGradient>
<linearGradient id="paint38_linear_69_3" x1="20.0207" y1="13.3594" x2="19.3808" y2="13.3594" gradientUnits="userSpaceOnUse">
<stop stop-color="#14884D"/>
<stop offset="1" stop-color="#279D67" stop-opacity="0"/>
</linearGradient>
</defs>
</svg>
