<svg width="36" height="34" viewBox="0 0 36 34" fill="none" xmlns="http://www.w3.org/2000/svg">
<path d="M20.0866 5.73907H15.9177C15.9177 1.72819 11.4713 -0.623837 8.202 1.64806C3.65266 4.81348 0.672606 10.1226 0.69242 16.1329C0.724123 25.8215 8.59036 33.6669 18.1685 33.5748C27.6516 33.4826 35.3078 25.6853 35.3078 16.0728C35.3078 10.0665 32.3159 4.76941 27.7586 1.62001C24.5051 -0.631851 20.0866 1.75224 20.0866 5.73907Z" fill="url(#paint0_linear_69_39)"/>
<path d="M20.0866 5.73907H15.9177C15.9177 1.72819 11.4713 -0.623837 8.202 1.64806C3.65266 4.81348 0.672606 10.1226 0.69242 16.1329C0.724123 25.8215 8.59036 33.6669 18.1685 33.5748C27.6516 33.4826 35.3078 25.6853 35.3078 16.0728C35.3078 10.0665 32.3159 4.76941 27.7586 1.62001C24.5051 -0.631851 20.0866 1.75224 20.0866 5.73907Z" fill="url(#paint1_radial_69_39)"/>
<path d="M20.0866 5.73907H15.9177C15.9177 1.72819 11.4713 -0.623837 8.202 1.64806C3.65266 4.81348 0.672606 10.1226 0.69242 16.1329C0.724123 25.8215 8.59036 33.6669 18.1685 33.5748C27.6516 33.4826 35.3078 25.6853 35.3078 16.0728C35.3078 10.0665 32.3159 4.76941 27.7586 1.62001C24.5051 -0.631851 20.0866 1.75224 20.0866 5.73907Z" fill="url(#paint2_radial_69_39)" fill-opacity="0.7"/>
<path d="M20.0866 5.73907H15.9177C15.9177 1.72819 11.4713 -0.623837 8.202 1.64806C3.65266 4.81348 0.672606 10.1226 0.69242 16.1329C0.724123 25.8215 8.59036 33.6669 18.1685 33.5748C27.6516 33.4826 35.3078 25.6853 35.3078 16.0728C35.3078 10.0665 32.3159 4.76941 27.7586 1.62001C24.5051 -0.631851 20.0866 1.75224 20.0866 5.73907Z" fill="url(#paint3_linear_69_39)"/>
<path d="M20.0866 5.73907H15.9177C15.9177 1.72819 11.4713 -0.623837 8.202 1.64806C3.65266 4.81348 0.672606 10.1226 0.69242 16.1329C0.724123 25.8215 8.59036 33.6669 18.1685 33.5748C27.6516 33.4826 35.3078 25.6853 35.3078 16.0728C35.3078 10.0665 32.3159 4.76941 27.7586 1.62001C24.5051 -0.631851 20.0866 1.75224 20.0866 5.73907Z" fill="url(#paint4_linear_69_39)" fill-opacity="0.7"/>
<path d="M20.0866 5.73907H15.9177C15.9177 1.72819 11.4713 -0.623837 8.202 1.64806C3.65266 4.81348 0.672606 10.1226 0.69242 16.1329C0.724123 25.8215 8.59036 33.6669 18.1685 33.5748C27.6516 33.4826 35.3078 25.6853 35.3078 16.0728C35.3078 10.0665 32.3159 4.76941 27.7586 1.62001C24.5051 -0.631851 20.0866 1.75224 20.0866 5.73907Z" fill="url(#paint5_radial_69_39)"/>
<path d="M20.0866 5.73907H15.9177C15.9177 1.72819 11.4713 -0.623837 8.202 1.64806C3.65266 4.81348 0.672606 10.1226 0.69242 16.1329C0.724123 25.8215 8.59036 33.6669 18.1685 33.5748C27.6516 33.4826 35.3078 25.6853 35.3078 16.0728C35.3078 10.0665 32.3159 4.76941 27.7586 1.62001C24.5051 -0.631851 20.0866 1.75224 20.0866 5.73907Z" fill="url(#paint6_radial_69_39)" fill-opacity="0.1"/>
<path d="M20.0866 5.73907H15.9177C15.9177 1.72819 11.4713 -0.623837 8.202 1.64806C3.65266 4.81348 0.672606 10.1226 0.69242 16.1329C0.724123 25.8215 8.59036 33.6669 18.1685 33.5748C27.6516 33.4826 35.3078 25.6853 35.3078 16.0728C35.3078 10.0665 32.3159 4.76941 27.7586 1.62001C24.5051 -0.631851 20.0866 1.75224 20.0866 5.73907Z" fill="url(#paint7_radial_69_39)" fill-opacity="0.1"/>
<path d="M20.0866 5.73907H15.9177C15.9177 1.72819 11.4713 -0.623837 8.202 1.64806C3.65266 4.81348 0.672606 10.1226 0.69242 16.1329C0.724123 25.8215 8.59036 33.6669 18.1685 33.5748C27.6516 33.4826 35.3078 25.6853 35.3078 16.0728C35.3078 10.0665 32.3159 4.76941 27.7586 1.62001C24.5051 -0.631851 20.0866 1.75224 20.0866 5.73907Z" fill="url(#paint8_radial_69_39)" fill-opacity="0.2"/>
<path d="M20.0866 5.73907H15.9177C15.9177 1.72819 11.4713 -0.623837 8.202 1.64806C3.65266 4.81348 0.672606 10.1226 0.69242 16.1329C0.724123 25.8215 8.59036 33.6669 18.1685 33.5748C27.6516 33.4826 35.3078 25.6853 35.3078 16.0728C35.3078 10.0665 32.3159 4.76941 27.7586 1.62001C24.5051 -0.631851 20.0866 1.75224 20.0866 5.73907Z" fill="url(#paint9_radial_69_39)" fill-opacity="0.15"/>
<path d="M20.0866 5.73907H15.9177C15.9177 1.72819 11.4713 -0.623837 8.202 1.64806C3.65266 4.81348 0.672606 10.1226 0.69242 16.1329C0.724123 25.8215 8.59036 33.6669 18.1685 33.5748C27.6516 33.4826 35.3078 25.6853 35.3078 16.0728C35.3078 10.0665 32.3159 4.76941 27.7586 1.62001C24.5051 -0.631851 20.0866 1.75224 20.0866 5.73907Z" fill="url(#paint10_radial_69_39)" fill-opacity="0.15"/>
<path d="M20.0866 5.73907H15.9177C15.9177 1.72819 11.4713 -0.623837 8.202 1.64806C3.65266 4.81348 0.672606 10.1226 0.69242 16.1329C0.724123 25.8215 8.59036 33.6669 18.1685 33.5748C27.6516 33.4826 35.3078 25.6853 35.3078 16.0728C35.3078 10.0665 32.3159 4.76941 27.7586 1.62001C24.5051 -0.631851 20.0866 1.75224 20.0866 5.73907Z" fill="url(#paint11_radial_69_39)" fill-opacity="0.15"/>
<path d="M20.0866 5.73907H15.9177C15.9177 1.72819 11.4713 -0.623837 8.202 1.64806C3.65266 4.81348 0.672606 10.1226 0.69242 16.1329C0.724123 25.8215 8.59036 33.6669 18.1685 33.5748C27.6516 33.4826 35.3078 25.6853 35.3078 16.0728C35.3078 10.0665 32.3159 4.76941 27.7586 1.62001C24.5051 -0.631851 20.0866 1.75224 20.0866 5.73907Z" fill="url(#paint12_radial_69_39)" fill-opacity="0.2"/>
<path d="M20.0866 5.73907H15.9177C15.9177 1.72819 11.4713 -0.623837 8.202 1.64806C3.65266 4.81348 0.672606 10.1226 0.69242 16.1329C0.724123 25.8215 8.59036 33.6669 18.1685 33.5748C27.6516 33.4826 35.3078 25.6853 35.3078 16.0728C35.3078 10.0665 32.3159 4.76941 27.7586 1.62001C24.5051 -0.631851 20.0866 1.75224 20.0866 5.73907Z" fill="url(#paint13_radial_69_39)" fill-opacity="0.2"/>
<path d="M20.0866 5.73907H15.9177C15.9177 1.72819 11.4713 -0.623837 8.202 1.64806C3.65266 4.81348 0.672606 10.1226 0.69242 16.1329C0.724123 25.8215 8.59036 33.6669 18.1685 33.5748C27.6516 33.4826 35.3078 25.6853 35.3078 16.0728C35.3078 10.0665 32.3159 4.76941 27.7586 1.62001C24.5051 -0.631851 20.0866 1.75224 20.0866 5.73907Z" fill="url(#paint14_radial_69_39)" fill-opacity="0.2"/>
<path d="M20.0866 5.73907H15.9177C15.9177 1.72819 11.4713 -0.623837 8.202 1.64806C3.65266 4.81348 0.672606 10.1226 0.69242 16.1329C0.724123 25.8215 8.59036 33.6669 18.1685 33.5748C27.6516 33.4826 35.3078 25.6853 35.3078 16.0728C35.3078 10.0665 32.3159 4.76941 27.7586 1.62001C24.5051 -0.631851 20.0866 1.75224 20.0866 5.73907Z" fill="url(#paint15_radial_69_39)" fill-opacity="0.2"/>
<defs>
<linearGradient id="paint0_linear_69_39" x1="18.0011" y1="0.750519" x2="18.0011" y2="33.5762" gradientUnits="userSpaceOnUse">
<stop offset="0.0111732" stop-color="#8ED800"/>
<stop offset="1" stop-color="#008461"/>
</linearGradient>
<radialGradient id="paint1_radial_69_39" cx="0" cy="0" r="1" gradientUnits="userSpaceOnUse" gradientTransform="translate(18.4383 3.03006) rotate(90) scale(23.6206 26.0989)">
<stop stop-color="#87BE58"/>
<stop offset="0.738994" stop-color="#87BE58" stop-opacity="0.658973"/>
<stop offset="1" stop-color="#87BE58" stop-opacity="0"/>
</radialGradient>
<radialGradient id="paint2_radial_69_39" cx="0" cy="0" r="1" gradientUnits="userSpaceOnUse" gradientTransform="translate(18.0001 16.0679) rotate(90) scale(18.3065 18.1054)">
<stop offset="0.750977" stop-color="white" stop-opacity="0"/>
<stop offset="0.821194" stop-color="white" stop-opacity="0"/>
<stop offset="0.847978" stop-color="white" stop-opacity="0.0707394"/>
<stop offset="0.895773" stop-color="white" stop-opacity="0.28"/>
<stop offset="0.91107" stop-color="white" stop-opacity="0.258934"/>
<stop offset="0.919197" stop-color="white" stop-opacity="0.22531"/>
<stop offset="0.941737" stop-color="white" stop-opacity="0.0646285"/>
<stop offset="0.953063" stop-color="white" stop-opacity="0"/>
<stop offset="1" stop-color="white" stop-opacity="0"/>
</radialGradient>
<linearGradient id="paint3_linear_69_39" x1="28.3896" y1="36.2395" x2="28.3896" y2="13.545" gradientUnits="userSpaceOnUse">
<stop offset="0.120914" stop-color="#008463"/>
<stop offset="0.70957" stop-color="#008463" stop-opacity="0.213978"/>
<stop offset="1" stop-color="#008463" stop-opacity="0"/>
</linearGradient>
<linearGradient id="paint4_linear_69_39" x1="28.3896" y1="36.2395" x2="28.3896" y2="13.545" gradientUnits="userSpaceOnUse">
<stop offset="0.120914" stop-color="#6F7E82"/>
<stop offset="0.70957" stop-color="#6F7E82" stop-opacity="0.213978"/>
<stop offset="1" stop-color="#6F7E82" stop-opacity="0"/>
</linearGradient>
<radialGradient id="paint5_radial_69_39" cx="0" cy="0" r="1" gradientUnits="userSpaceOnUse" gradientTransform="translate(17.3993 1.7487) scale(8.92067 10.0769)">
<stop stop-color="#87BE58"/>
<stop offset="0.738994" stop-color="#87BE58" stop-opacity="0.658973"/>
<stop offset="1" stop-color="#87BE58" stop-opacity="0"/>
</radialGradient>
<radialGradient id="paint6_radial_69_39" cx="0" cy="0" r="1" gradientUnits="userSpaceOnUse" gradientTransform="translate(25.3448 2.30347) rotate(93.7105) scale(1.11618 2.13444)">
<stop stop-color="white"/>
<stop offset="0.303337" stop-color="white" stop-opacity="0.776485"/>
<stop offset="0.828251" stop-color="white" stop-opacity="0.10491"/>
<stop offset="1" stop-color="white" stop-opacity="0"/>
</radialGradient>
<radialGradient id="paint7_radial_69_39" cx="0" cy="0" r="1" gradientUnits="userSpaceOnUse" gradientTransform="translate(23.3041 2.81474) rotate(58.8171) scale(1.43001 2.75069)">
<stop stop-color="white"/>
<stop offset="0.303337" stop-color="white" stop-opacity="0.776485"/>
<stop offset="0.828251" stop-color="white" stop-opacity="0.10491"/>
<stop offset="1" stop-color="white" stop-opacity="0"/>
</radialGradient>
<radialGradient id="paint8_radial_69_39" cx="0" cy="0" r="1" gradientUnits="userSpaceOnUse" gradientTransform="translate(14.3124 3.74138) rotate(132.151) scale(1.06477 2.84929)">
<stop stop-color="white"/>
<stop offset="0.341056" stop-color="white" stop-opacity="0.78"/>
<stop offset="0.828251" stop-color="white" stop-opacity="0.10491"/>
<stop offset="1" stop-color="white" stop-opacity="0"/>
</radialGradient>
<radialGradient id="paint9_radial_69_39" cx="0" cy="0" r="1" gradientUnits="userSpaceOnUse" gradientTransform="translate(12.8917 2.50267) rotate(111.792) scale(1.04241 2.77017)">
<stop stop-color="white"/>
<stop offset="0.341056" stop-color="white" stop-opacity="0.78"/>
<stop offset="0.828251" stop-color="white" stop-opacity="0.10491"/>
<stop offset="1" stop-color="white" stop-opacity="0"/>
</radialGradient>
<radialGradient id="paint10_radial_69_39" cx="0" cy="0" r="1" gradientUnits="userSpaceOnUse" gradientTransform="translate(11.2463 2.12457) rotate(94.9459) scale(0.887859 2.35261)">
<stop stop-color="white"/>
<stop offset="0.341056" stop-color="white" stop-opacity="0.78"/>
<stop offset="0.828251" stop-color="white" stop-opacity="0.10491"/>
<stop offset="1" stop-color="white" stop-opacity="0"/>
</radialGradient>
<radialGradient id="paint11_radial_69_39" cx="0" cy="0" r="1" gradientUnits="userSpaceOnUse" gradientTransform="translate(9.93406 2.34571) rotate(70.2194) scale(0.904768 2.40315)">
<stop stop-color="white"/>
<stop offset="0.341056" stop-color="white" stop-opacity="0.78"/>
<stop offset="0.828251" stop-color="white" stop-opacity="0.10491"/>
<stop offset="1" stop-color="white" stop-opacity="0"/>
</radialGradient>
<radialGradient id="paint12_radial_69_39" cx="0" cy="0" r="1" gradientUnits="userSpaceOnUse" gradientTransform="translate(18.0001 15.1189) rotate(90) scale(18.4567 18.579)">
<stop stop-opacity="0"/>
<stop offset="0.899119" stop-opacity="0"/>
<stop offset="0.92859" stop-opacity="0.159044"/>
<stop offset="1"/>
</radialGradient>
<radialGradient id="paint13_radial_69_39" cx="0" cy="0" r="1" gradientUnits="userSpaceOnUse" gradientTransform="translate(16.1592 18.258) rotate(133.768) scale(19.4046 22.98)">
<stop offset="0.473644"/>
<stop offset="0.621709" stop-opacity="0.165789"/>
<stop offset="0.690215" stop-opacity="0"/>
<stop offset="1" stop-opacity="0"/>
</radialGradient>
<radialGradient id="paint14_radial_69_39" cx="0" cy="0" r="1" gradientUnits="userSpaceOnUse" gradientTransform="translate(16.1667 26.6986) rotate(125.449) scale(5.78989 5.37491)">
<stop offset="0.473644"/>
<stop offset="0.766416" stop-opacity="0.165789"/>
<stop offset="0.870756" stop-opacity="0"/>
<stop offset="1" stop-opacity="0"/>
</radialGradient>
<radialGradient id="paint15_radial_69_39" cx="0" cy="0" r="1" gradientUnits="userSpaceOnUse" gradientTransform="translate(13.5893 22.6504) rotate(98.7723) scale(7.69197 9.26766)">
<stop offset="0.473644"/>
<stop offset="0.766416" stop-opacity="0.165789"/>
<stop offset="0.870756" stop-opacity="0"/>
<stop offset="1" stop-opacity="0"/>
</radialGradient>
</defs>
</svg>
